<?xml version="1.0" encoding="UTF-8"?>
<svg width="135px" height="140px" viewBox="0 0 135 140" version="1.1" xmlns="http://www.w3.org/2000/svg" xmlns:xlink="http://www.w3.org/1999/xlink">
    <title>452F9212-219A-427F-9CF2-9240E40892A6</title>
    <defs>
        <linearGradient x1="49.9972334%" y1="-16.9290257%" x2="49.9972334%" y2="80.0097752%" id="linearGradient-1">
            <stop stop-color="#D5D5D9" offset="0%"></stop>
            <stop stop-color="#30313C" offset="100%"></stop>
        </linearGradient>
        <linearGradient x1="49.9972334%" y1="-16.9290257%" x2="49.9972334%" y2="80.0097752%" id="linearGradient-2">
            <stop stop-color="#D5D5D9" offset="0%"></stop>
            <stop stop-color="#30313C" offset="100%"></stop>
        </linearGradient>
        <linearGradient x1="72.3490128%" y1="41.1802254%" x2="-19.2699458%" y2="77.4466412%" id="linearGradient-3">
            <stop stop-color="#D9EEF9" offset="0%"></stop>
            <stop stop-color="#E1EEF9" stop-opacity="0.5" offset="100%"></stop>
        </linearGradient>
        <linearGradient x1="0%" y1="33.062136%" x2="117.692718%" y2="70.6694276%" id="linearGradient-4">
            <stop stop-color="#9B3CB7" offset="0%"></stop>
            <stop stop-color="#FF396F" offset="100%"></stop>
        </linearGradient>
        <linearGradient x1="98.457769%" y1="24.6409593%" x2="-0.264096592%" y2="70.9838708%" id="linearGradient-5">
            <stop stop-color="#BB0E29" offset="0%"></stop>
            <stop stop-color="#FFABB8" offset="100%"></stop>
        </linearGradient>
        <linearGradient x1="49.9972334%" y1="-16.9290257%" x2="49.9972334%" y2="80.0097752%" id="linearGradient-6">
            <stop stop-color="#D5D5D9" offset="0%"></stop>
            <stop stop-color="#30313C" offset="100%"></stop>
        </linearGradient>
        <linearGradient x1="49.9972334%" y1="-16.9290257%" x2="49.9972334%" y2="80.0097752%" id="linearGradient-7">
            <stop stop-color="#D5D5D9" offset="0%"></stop>
            <stop stop-color="#30313C" offset="100%"></stop>
        </linearGradient>
        <linearGradient x1="98.457769%" y1="14.1691409%" x2="-0.264096592%" y2="79.6489968%" id="linearGradient-8">
            <stop stop-color="#BB0E29" offset="0%"></stop>
            <stop stop-color="#FFABB8" offset="100%"></stop>
        </linearGradient>
        <linearGradient x1="98.457769%" y1="14.1581414%" x2="-0.264096592%" y2="79.6580986%" id="linearGradient-9">
            <stop stop-color="#BB0E29" offset="0%"></stop>
            <stop stop-color="#FFABB8" offset="100%"></stop>
        </linearGradient>
        <linearGradient x1="2.66119537%" y1="7.26663466%" x2="104.519568%" y2="99.5438935%" id="linearGradient-10">
            <stop stop-color="#FF8DE5" offset="0%"></stop>
            <stop stop-color="#FFAA9F" offset="51.04%"></stop>
            <stop stop-color="#FFC99F" offset="100%"></stop>
        </linearGradient>
        <linearGradient x1="98.457769%" y1="30.7104859%" x2="-0.264096592%" y2="65.9615136%" id="linearGradient-11">
            <stop stop-color="#BB0E29" offset="0%"></stop>
            <stop stop-color="#FFABB8" offset="100%"></stop>
        </linearGradient>
        <linearGradient x1="74.8164817%" y1="44.1354633%" x2="27.4413804%" y2="53.0485623%" id="linearGradient-12">
            <stop stop-color="#B23696" stop-opacity="0" offset="0%"></stop>
            <stop stop-color="#B83F9B" stop-opacity="0.05362695" offset="49.48%"></stop>
            <stop stop-color="#D367B1" stop-opacity="0.3" offset="100%"></stop>
        </linearGradient>
        <linearGradient x1="6.87662889%" y1="0%" x2="93.1233711%" y2="100%" id="linearGradient-13">
            <stop stop-color="#38B8F2" offset="0%"></stop>
            <stop stop-color="#843CF6" offset="100%"></stop>
        </linearGradient>
        <linearGradient x1="18.9106086%" y1="0%" x2="81.0893914%" y2="100%" id="linearGradient-14">
            <stop stop-color="#38B8F2" offset="0%"></stop>
            <stop stop-color="#843CF6" offset="100%"></stop>
        </linearGradient>
        <linearGradient x1="0%" y1="37.2757892%" x2="100%" y2="62.7242108%" id="linearGradient-15">
            <stop stop-color="#38B8F2" offset="0%"></stop>
            <stop stop-color="#843CF6" offset="100%"></stop>
        </linearGradient>
        <linearGradient x1="0.986322262%" y1="23.1591078%" x2="106.4485%" y2="81.1185954%" id="linearGradient-16">
            <stop stop-color="#FF8DE5" offset="0%"></stop>
            <stop stop-color="#FFAA9F" offset="51.04%"></stop>
            <stop stop-color="#FFC99F" offset="100%"></stop>
        </linearGradient>
        <linearGradient x1="0.986322262%" y1="23.1443703%" x2="106.4485%" y2="81.1356816%" id="linearGradient-17">
            <stop stop-color="#FFC99F" offset="0%"></stop>
            <stop stop-color="#FFAA9F" offset="48.96%"></stop>
            <stop stop-color="#FF8DE5" offset="100%"></stop>
        </linearGradient>
        <linearGradient x1="30.7517842%" y1="7.26663466%" x2="72.1679533%" y2="99.5438935%" id="linearGradient-18">
            <stop stop-color="#FFC99F" offset="0%"></stop>
            <stop stop-color="#FFAA9F" offset="48.96%"></stop>
            <stop stop-color="#FF8DE5" offset="100%"></stop>
        </linearGradient>
        <linearGradient x1="98.4867925%" y1="72.2299902%" x2="11.2172396%" y2="41.9507315%" id="linearGradient-19">
            <stop stop-color="#313571" offset="0%"></stop>
            <stop stop-color="#8567D3" offset="100%"></stop>
        </linearGradient>
        <linearGradient x1="2.65928916%" y1="7.26663466%" x2="104.521763%" y2="99.5438935%" id="linearGradient-20">
            <stop stop-color="#FF8DE5" offset="0%"></stop>
            <stop stop-color="#FFAA9F" offset="51.04%"></stop>
            <stop stop-color="#FFC99F" offset="100%"></stop>
        </linearGradient>
    </defs>
    <g id="Usability-Testing" stroke="none" stroke-width="1" fill="none" fill-rule="evenodd">
        <g id="Step-2---Welcome" transform="translate(-904.000000, -454.000000)">
            <g id="Illusrations" transform="translate(300.000000, 435.000000)">
                <g id="Comp-méthodo" transform="translate(588.000000, 0.000000)">
                    <g id="Illustration/Methodological" transform="translate(16.000000, 19.000000)">
                        <g>
                            <polygon id="Path" fill="url(#linearGradient-1)" fill-rule="nonzero" opacity="0.185988653" points="131.819896 101.007747 62.7819805 61.6020355 62.7819805 10.2632954 95.2638633 28.8752584 131.819896 49.8248484"></polygon>
                            <polygon id="Path" fill="#FFFFFF" fill-rule="nonzero" points="128.168745 51.4500557 128.168745 95.0634953 106.862946 82.9523615 106.862946 82.9523615 66.6780254 60.13267 66.6780254 16.2075467 97.8686476 34.084827"></polygon>
                            <path d="M129.771689,138.365251 C129.749426,138.342988 129.682637,138.276199 129.593585,138.187146 C129.660374,138.231673 129.727163,138.298462 129.771689,138.365251 Z" id="Path" fill="#FED2F5" fill-rule="nonzero"></path>
                            <path d="M127.567641,108.844363 L75.9172176,138.676935 C74.5146414,139.50067 72.7781185,139.50067 71.3532793,138.676935 L4.49714896,100.184011 C2.62704741,99.115382 1.91462777,97.0449124 2.31536382,95.2193371 C2.58252118,94.0616552 3.29494082,92.9707626 4.47488584,92.2806061 L56.1475726,62.3367182 C57.5501488,61.512983 59.3089348,61.512983 60.7115109,62.3367182 L127.567641,100.940957 C128.747586,101.631114 129.460006,102.699743 129.727163,103.879688 C130.150162,105.705264 129.437743,107.775733 127.567641,108.844363 Z" id="Path" fill="url(#linearGradient-2)" fill-rule="nonzero"></path>
                            <path d="M129.727163,103.879688 C129.460006,105.059633 128.747586,106.128263 127.567641,106.818419 L75.9172176,136.650992 C74.5146414,137.474727 72.7781185,137.474727 71.3532793,136.650992 L4.49714896,98.1580681 C3.31720393,97.4679116 2.58252118,96.377019 2.31536382,95.2193371 C2.58252118,94.0616552 3.29494082,92.9707626 4.47488584,92.2806061 L56.1475726,62.3367182 C57.5501488,61.512983 59.3089348,61.512983 60.7115109,62.3367182 L127.567641,100.940957 C128.747586,101.631114 129.482269,102.699743 129.727163,103.879688 Z" id="Path" fill="url(#linearGradient-3)" fill-rule="nonzero"></path>
                            <g id="Group" transform="translate(28.051523, 64.563030)">
                                <polygon id="Path" fill="url(#linearGradient-4)" points="67.6798655 57.2607283 0.0890524546 18.2334901 30.366887 0.155841796 98.2025943 39.4279743"></polygon>
                                <line x1="34.0403008" y1="5.43219973" x2="91.9021332" y2="38.8491333" id="Path" stroke="#FFFFFF" stroke-width="0.52238806"></line>
                                <line x1="29.8548354" y1="7.85887912" x2="87.7166678" y2="41.2535496" id="Path" stroke="#FFFFFF" stroke-width="0.52238806"></line>
                                <line x1="25.6916332" y1="10.2632954" x2="83.5312024" y2="43.6579659" id="Path" stroke="#FFFFFF" stroke-width="0.52238806"></line>
                                <line x1="21.3725891" y1="12.7567641" x2="79.2121584" y2="46.1514346" id="Path" stroke="#FFFFFF" stroke-width="0.52238806"></line>
                                <line x1="17.0535451" y1="15.2502329" x2="74.9153775" y2="48.6449033" id="Path" stroke="#FFFFFF" stroke-width="0.52238806"></line>
                                <line x1="12.734501" y1="17.7437016" x2="70.5963334" y2="51.1383721" id="Path" stroke="#FFFFFF" stroke-width="0.52238806"></line>
                                <text id="1-k" fill="#FFFFFF" transform="translate(10.427330, 15.579482) rotate(44.999580) translate(-10.427330, -15.579482) " font-family="Helvetica" font-size="1.71189986" font-weight="normal">
                                    <tspan x="9.36691458" y="15.4663508">1 </tspan>
                                    <tspan x="9.36691458" y="16.4663508">k</tspan>
                                </text>
                                <text id="Mon" fill="#FFFFFF" transform="translate(12.992135, 21.861576) rotate(33.999580) translate(-12.992135, -21.861576) " font-family="Helvetica" font-size="1.71189986" font-weight="normal">
                                    <tspan x="10.9921354" y="21.7484449">Mon</tspan>
                                </text>
                                <text id="Tue" fill="#FFFFFF" transform="translate(21.735834, 26.967346) rotate(32.999580) translate(-21.735834, -26.967346) " font-family="Helvetica" font-size="1.71189986" font-weight="normal">
                                    <tspan x="19.7358336" y="26.8542147">Tue</tspan>
                                </text>
                                <text id="Wed" fill="#FFFFFF" transform="translate(30.117794, 31.720199) rotate(31.999580) translate(-30.117794, -31.720199) " font-family="Helvetica" font-size="1.71189986" font-weight="normal">
                                    <tspan x="28.1177938" y="31.6070677">Wed</tspan>
                                </text>
                                <text id="Thu" fill="#FFFFFF" transform="translate(38.378943, 36.397970) rotate(31.999580) translate(-38.378943, -36.397970) " font-family="Helvetica" font-size="1.71189986" font-weight="normal">
                                    <tspan x="36.8789435" y="36.2848389">Thu</tspan>
                                </text>
                                <text id="Fri" fill="#FFFFFF" transform="translate(46.510686, 41.236860) rotate(32.999580) translate(-46.510686, -41.236860) " font-family="Helvetica" font-size="1.71189986" font-weight="normal">
                                    <tspan x="45.0106863" y="41.1237286">Fri</tspan>
                                </text>
                                <text id="Sat" fill="#FFFFFF" transform="translate(54.154023, 45.563285) rotate(30.999580) translate(-54.154023, -45.563285) " font-family="Helvetica" font-size="1.71189986" font-weight="normal">
                                    <tspan x="52.6540231" y="45.4501539">Sat</tspan>
                                </text>
                                <text id="Sun" fill="#FFFFFF" transform="translate(62.564651, 50.510949) rotate(32.999580) translate(-62.564651, -50.510949) " font-family="Helvetica" font-size="1.71189986" font-weight="normal">
                                    <tspan x="60.5646506" y="50.3978177">Sun</tspan>
                                </text>
                                <text id="10-k" fill="#FFFFFF" transform="translate(14.941043, 13.359115) rotate(44.999580) translate(-14.941043, -13.359115) " font-family="Helvetica" font-size="1.71189986" font-weight="normal">
                                    <tspan x="13.4950217" y="13.2459837">10 </tspan>
                                    <tspan x="13.4950217" y="14.2459837">k</tspan>
                                </text>
                                <text id="20-k" fill="#FFFFFF" transform="translate(19.120675, 10.946016) rotate(44.999580) translate(-19.120675, -10.946016) " font-family="Helvetica" font-size="1.71189986" font-weight="normal">
                                    <tspan x="17.6746541" y="10.8328848">20 </tspan>
                                    <tspan x="17.6746541" y="11.8328848">k</tspan>
                                </text>
                                <text id="30-k" fill="#FFFFFF" transform="translate(23.300642, 8.532739) rotate(44.999580) translate(-23.300642, -8.532739) " font-family="Helvetica" font-size="1.71189986" font-weight="normal">
                                    <tspan x="21.8546205" y="8.41960785">30 </tspan>
                                    <tspan x="21.8546205" y="9.41960785">k</tspan>
                                </text>
                                <text id="40-k" fill="#FFFFFF" transform="translate(27.480296, 6.119596) rotate(44.999580) translate(-27.480296, -6.119596) " font-family="Helvetica" font-size="1.71189986" font-weight="normal">
                                    <tspan x="26.0342752" y="6.00646444">40 </tspan>
                                    <tspan x="26.0342752" y="7.00646444">k</tspan>
                                </text>
                                <text id="50-k" fill="#FFFFFF" transform="translate(31.660352, 3.706274) rotate(44.999580) translate(-31.660352, -3.706274) " font-family="Helvetica" font-size="1.71189986" font-weight="normal">
                                    <tspan x="30.2143306" y="3.59314292">50 </tspan>
                                    <tspan x="30.2143306" y="4.59314292">k</tspan>
                                </text>
                            </g>
                            <polygon id="Path" fill="url(#linearGradient-5)" fill-rule="nonzero" points="131.819896 41.0531816 131.819896 49.8248484 95.2638633 28.8752584 62.7819805 10.2632954 62.7819805 1.33578682 90.8335037 17.4765442"></polygon>
                            <polygon id="Path" fill="url(#linearGradient-6)" fill-rule="nonzero" points="134.892206 99.4493287 134.892206 39.7841841 131.819896 41.0531816 131.819896 101.007747"></polygon>
                            <path d="M134.892206,39.7841841 L131.819896,41.0531816 L90.8335037,17.4765442 C90.8335037,17.4765442 90.8335037,17.4765442 90.8335037,17.4765442 L62.7819805,1.33578682 L65.5426066,0.178104909 L90.6108726,14.493287 L134.892206,39.7841841 Z" id="Path" fill="url(#linearGradient-7)" fill-rule="nonzero"></path>
                            <g id="Group" transform="translate(65.453554, 5.788410)" fill-rule="nonzero">
                                <ellipse id="Oval" fill="#F9FBFF" transform="translate(5.550720, 4.284207) rotate(-23.052647) translate(-5.550720, -4.284207) " cx="5.55071964" cy="4.28420673" rx="1.02416396" ry="1.80341914"></ellipse>
                                <ellipse id="Oval" fill="#FFFFFF" transform="translate(1.656416, 2.105236) rotate(-23.052647) translate(-1.656416, -2.105236) " cx="1.65641573" cy="2.10523565" rx="1.02416396" ry="1.80341914"></ellipse>
                            </g>
                            <g id="Group" transform="translate(72.132488, 47.197801)" fill-rule="nonzero">
                                <g id="Path">
                                    <path d="M25.0237397,21.4393785 L0.66789341,7.36909062 C0.289420478,7.14645948 2.53102299e-14,6.56761853 2.53102299e-14,6.07783003 L2.53102299e-14,0.66789341 C2.53102299e-14,0.178104909 0.311683591,-0.066789341 0.66789341,0.155841796 L25.0237397,14.2261296 C25.4022127,14.4487608 25.6916332,15.0276017 25.6916332,15.5173902 L25.6916332,20.9273268 C25.6916332,21.4171153 25.4022127,21.6620096 25.0237397,21.4393785 Z" fill="url(#linearGradient-8)"></path>
                                    <g transform="translate(2.003680, 3.116836)" fill="#FFFFFF">
                                        <g transform="translate(3.339467, 2.003680)">
                                            <polygon points="7.9924578 7.41361685 0.178104909 2.91646789 0.178104909 2.35989005 7.9924578 6.87930212"></polygon>
                                            <polygon points="2.96099412 2.33762693 0.178104909 0.734682751 0.178104909 0.200368023 2.96099412 1.80331221"></polygon>
                                        </g>
                                        <path d="M1.55841796,3.80699244 L0.712419637,3.31720393 C0.311683591,3.0945728 0,2.49346873 0,1.959154 L0,0.823735205 C0,0.311683591 0.311683591,0.066789341 0.712419637,0.289420478 L1.55841796,0.779208978 C1.959154,1.00184011 2.27083759,1.60294418 2.27083759,2.13725891 L2.27083759,3.27267771 C2.27083759,3.78472932 1.93689089,4.02962357 1.55841796,3.80699244 Z"></path>
                                    </g>
                                </g>
                                <g transform="translate(15.361548, 9.350508)" fill="#FFFFFF" id="Path">
                                    <polygon points="0.512051614 0.311683591 0 0.0890524546 0 5.49898907 0.512051614 5.74388332"></polygon>
                                    <polygon points="1.75878598 2.82741543 1.26899748 2.6047843 1.26899748 6.21140871 1.75878598 6.43403985"></polygon>
                                    <polygon points="5.29862105 4.94241123 4.78656944 4.69751698 4.78656944 8.32640451 5.29862105 8.54903564"></polygon>
                                    <polygon points="3.02778346 1.73652287 2.51573184 1.49162861 2.51573184 6.90156523 3.02778346 7.14645948"></polygon>
                                    <polygon points="4.02962357 6.58988164 3.53983507 6.34498739 3.53983507 7.61398487 4.02962357 7.83661601"></polygon>
                                    <polygon points="6.54535541 3.82925555 6.05556691 3.60662441 6.05556691 9.01656103 6.54535541 9.26145528"></polygon>
                                    <polygon points="7.81435289 8.70487744 7.30230128 8.45998319 7.30230128 9.72898067 7.81435289 9.9516118"></polygon>
                                </g>
                            </g>
                            <g id="Group" transform="translate(98.848225, 62.114087)" fill-rule="nonzero">
                                <g id="Path">
                                    <path d="M25.2241078,21.4616416 L0.868261433,7.39135373 C0.4897885,7.1687226 0.200368023,6.58988164 0.200368023,6.10009314 L0.200368023,0.690156523 C0.200368023,0.200368023 0.512051614,-0.0445262273 0.868261433,0.178104909 L25.2241078,14.2483927 C25.6025807,14.4710239 25.8920012,15.0498648 25.8920012,15.5396533 L25.8920012,20.9495899 C25.8920012,21.4616416 25.6025807,21.6842727 25.2241078,21.4616416 Z" fill="url(#linearGradient-9)"></path>
                                    <g transform="translate(2.003680, 3.339467)" fill="#FFFFFF">
                                        <g transform="translate(3.562098, 2.003680)">
                                            <polygon points="7.97019469 7.23551194 0.155841796 2.71609987 0.155841796 2.18178514 7.97019469 6.6789341"></polygon>
                                            <polygon points="2.938731 2.13725891 0.155841796 0.534314728 0.155841796 0 2.938731 1.60294418"></polygon>
                                        </g>
                                        <path d="M1.75878598,3.60662441 L0.91278766,3.11683591 C0.512051614,2.89420478 0.200368023,2.29310071 0.200368023,1.75878598 L0.200368023,0.623367182 C0.200368023,0.111315568 0.512051614,-0.133578682 0.91278766,0.0890524546 L1.75878598,0.578840955 C2.15952202,0.801472092 2.47120562,1.40257616 2.47120562,1.93689089 L2.47120562,3.07230968 C2.47120562,3.60662441 2.13725891,3.85151866 1.75878598,3.60662441 Z"></path>
                                    </g>
                                </g>
                                <g transform="translate(15.361548, 9.350508)" fill="#FFFFFF" id="Path">
                                    <polygon points="0.712419637 0.356209818 0.200368023 0.111315568 0.200368023 5.52125219 0.712419637 5.76614644"></polygon>
                                    <polygon points="1.959154 2.84967855 1.4693655 2.62704741 1.4693655 6.23367182 1.959154 6.47856607"></polygon>
                                    <polygon points="5.49898907 4.96467435 4.98693746 4.74204321 4.98693746 8.34866762 5.49898907 8.57129876"></polygon>
                                    <polygon points="3.22815148 1.75878598 2.71609987 1.51389173 2.71609987 6.94609146 3.22815148 7.1687226"></polygon>
                                    <polygon points="4.22999159 6.61214476 3.74020309 6.36725051 3.74020309 7.63624798 4.22999159 7.88114223"></polygon>
                                    <polygon points="6.76798655 3.87378178 6.25593494 3.62888753 6.25593494 9.03882414 6.76798655 9.28371839"></polygon>
                                    <polygon points="8.01472092 8.72714055 7.52493242 8.4822463 7.52493242 9.75124378 8.01472092 9.99613803"></polygon>
                                </g>
                            </g>
                            <path d="M47.398169,119.463868 L25.268634,106.684841 C24.1109521,106.016947 24.2445308,104.837002 25.6025807,104.057793 L40.2071833,95.6200732 C41.5429701,94.8408642 43.5911765,94.7518117 44.7488584,95.4419682 L66.8783934,108.220995 C68.0360753,108.888889 67.9024966,110.068834 66.5444467,110.848043 L51.9398442,119.285763 C50.6040573,120.042709 48.5558509,120.131761 47.398169,119.463868 Z" id="Path" fill="#FFFFFF" fill-rule="nonzero"></path>
                            <g id="Group" transform="translate(67.011972, 21.149958)">
                                <g transform="translate(5.120516, 5.343147)" id="Path" stroke="#DFE6FD" stroke-linecap="round" stroke-linejoin="round" stroke-width="0.52238806">
                                    <line x1="0.0445262273" y1="0.155841796" x2="52.5854745" y2="30.2555715"></line>
                                    <line x1="0.0445262273" y1="3.67341375" x2="52.7635794" y2="33.6173016"></line>
                                    <line x1="0.0445262273" y1="7.19098571" x2="52.69679" y2="37.023558"></line>
                                    <line x1="0.0445262273" y1="10.7085577" x2="52.6522638" y2="40.4520775"></line>
                                    <line x1="0.0445262273" y1="14.2261296" x2="52.6522638" y2="43.8360708"></line>
                                </g>
                                <g transform="translate(5.120516, 0.000000)">
                                    <polygon id="Path" points="2.09273268 3.96283423 0.0222631137 2.76062609 0.0222631137 0.779208978 2.09273268 1.959154"></polygon>
                                    <text id="Jan" fill="#DFE6FD" font-family="Helvetica" font-size="1.91912492" font-weight="normal">
                                        <tspan x="0.0321034099" y="1.13130784">Ja</tspan>
                                        <tspan x="0.0321034099" y="2.13130784">n</tspan>
                                    </text>
                                    <polygon id="Path" points="6.90156523 6.72346032 4.22999159 5.18730548 4.22999159 3.18362525 6.90156523 4.74204321"></polygon>
                                    <text id="Feb" fill="#DFE6FD" font-family="Helvetica" font-size="1.91912492" font-weight="normal">
                                        <tspan x="4.23032554" y="3.55513755">Fe</tspan>
                                        <tspan x="4.23032554" y="4.55513755">b</tspan>
                                    </text>
                                    <polygon id="Path" points="11.3319249 9.4618233 8.66035121 7.90340535 8.66035121 5.92198823 11.3319249 7.45814307"></polygon>
                                    <text id="Mar" fill="#DFE6FD" font-family="Helvetica" font-size="1.91912492" font-weight="normal">
                                        <tspan x="8.66823235" y="6.27735978">M</tspan>
                                        <tspan x="8.66823235" y="7.27735978">ar</tspan>
                                    </text>
                                    <polygon id="Path" points="15.7622845 12.0220814 13.0907108 10.4859265 13.0907108 8.4822463 15.7622845 10.0184011"></polygon>
                                    <text id="Apr" fill="#DFE6FD" font-family="Helvetica" font-size="1.91912492" font-weight="normal">
                                        <tspan x="13.1061392" y="8.839577">A</tspan>
                                        <tspan x="13.1061392" y="9.839577">pr</tspan>
                                    </text>
                                    <polygon id="Path" points="20.2149072 14.5823394 17.5433336 13.0461846 17.5433336 11.0425044 20.2149072 12.5786592"></polygon>
                                    <text id="May" fill="#DFE6FD" font-family="Helvetica" font-size="1.91912492" font-weight="normal">
                                        <tspan x="17.5442463" y="11.4019055">Ma</tspan>
                                        <tspan x="17.5442463" y="12.4019055">y</tspan>
                                    </text>
                                    <polygon id="Path" points="25.1127922 17.4097549 22.4634817 15.8736 22.4634817 13.8699198 25.1127922 15.4283378"></polygon>
                                    <text id="Jun" fill="#DFE6FD" font-family="Helvetica" font-size="1.91912492" font-weight="normal">
                                        <tspan x="22.461901" y="14.2412095">Ju</tspan>
                                        <tspan x="22.461901" y="15.2412095">n</tspan>
                                    </text>
                                    <polygon id="Path" points="29.5654149 19.8141712 26.8938413 18.2780163 26.8938413 16.2743361 29.5654149 17.8104909"></polygon>
                                    <text id="Jul" fill="#DFE6FD" font-family="Helvetica" font-size="1.91912492" font-weight="normal">
                                        <tspan x="26.8999859" y="16.6435108">J</tspan>
                                        <tspan x="26.8999859" y="17.6435108">ul</tspan>
                                    </text>
                                    <polygon id="Path" points="33.5282492 22.1072719 30.8566755 20.571117 30.8566755 18.5674368 33.5282492 20.1035916"></polygon>
                                    <text id="Aug" fill="#DFE6FD" font-family="Helvetica" font-size="1.91912492" font-weight="normal">
                                        <tspan x="30.8583453" y="18.9288416">Au</tspan>
                                        <tspan x="30.8583453" y="19.9288416">g</tspan>
                                    </text>
                                    <polygon id="Path" points="38.203503 24.8011086 35.5319294 23.2649538 35.5319294 21.2612735 38.203503 22.7974284"></polygon>
                                    <text id="Sep" fill="#DFE6FD" font-family="Helvetica" font-size="1.91912492" font-weight="normal">
                                        <tspan x="35.5361371" y="21.6295577">Se</tspan>
                                        <tspan x="35.5361371" y="22.6295577">p</tspan>
                                    </text>
                                    <polygon id="Path" points="42.8787569 27.5172085 40.2071833 25.9587905 40.2071833 23.9773734 42.8787569 25.5135282"></polygon>
                                    <text id="Oct" fill="#DFE6FD" font-family="Helvetica" font-size="1.91912492" font-weight="normal">
                                        <tspan x="40.2139067" y="24.3302737">O</tspan>
                                        <tspan x="40.2139067" y="25.3302737">ct</tspan>
                                    </text>
                                    <polygon id="Path" points="47.3091165 30.0774665 44.6375429 28.5190486 44.6375429 26.5376315 47.3091165 28.0737863"></polygon>
                                    <text id="Nov" fill="#DFE6FD" font-family="Helvetica" font-size="1.91912492" font-weight="normal">
                                        <tspan x="44.6519916" y="26.89258">No</tspan>
                                        <tspan x="44.6519916" y="27.89258">v</tspan>
                                    </text>
                                    <polygon id="Path" points="52.1179491 32.8380926 49.4463754 31.3019378 49.4463754 29.2982576 52.1179491 30.8344124"></polygon>
                                    <text id="Dec" fill="#DFE6FD" font-family="Helvetica" font-size="1.91912492" font-weight="normal">
                                        <tspan x="49.4499375" y="29.6626457">De</tspan>
                                        <tspan x="49.4499375" y="30.6626457">c</tspan>
                                    </text>
                                </g>
                                <g transform="translate(0.000000, 0.890525)">
                                    <polygon id="Path" points="5.78840955 6.16688248 0.0222631137 2.84967855 0.0222631137 0.845998319 5.78840955 4.16320225"></polygon>
                                    <text id="00000" fill="#DFE6FD" font-family="Helvetica" font-size="1.91912492" font-weight="normal">
                                        <tspan x="0.028207365" y="1.20359617">000</tspan>
                                        <tspan x="0.028207365" y="2.20359617">00</tspan>
                                    </text>
                                    <g transform="translate(0.000000, 3.784729)">
                                        <polygon id="Path" points="5.89972512 5.96651446 0.133578682 2.64931053 0.133578682 0.645630296 5.89972512 3.96283423"></polygon>
                                        <text id="00000" fill="#DFE6FD" font-family="Helvetica" font-size="1.91912492" font-weight="normal">
                                            <tspan x="0.148339126" y="1.00661214">000</tspan>
                                            <tspan x="0.148339126" y="2.00661214">00</tspan>
                                        </text>
                                    </g>
                                    <g transform="translate(0.000000, 7.124196)">
                                        <polygon id="Path" points="5.89972512 6.14461937 0.133578682 2.82741543 0.133578682 0.823735205 5.89972512 4.14093914"></polygon>
                                        <text id="00000" fill="#DFE6FD" font-family="Helvetica" font-size="1.91912492" font-weight="normal">
                                            <tspan x="0.148339126" y="1.18554079">000</tspan>
                                            <tspan x="0.148339126" y="2.18554079">00</tspan>
                                        </text>
                                    </g>
                                    <g transform="translate(0.000000, 10.686295)">
                                        <polygon id="Path" points="5.89972512 6.10009314 0.133578682 2.78288921 0.133578682 0.779208978 5.89972512 4.09641291"></polygon>
                                        <text id="00000" fill="#DFE6FD" font-family="Helvetica" font-size="1.91912492" font-weight="normal">
                                            <tspan x="0.148339126" y="1.1418383">000</tspan>
                                            <tspan x="0.148339126" y="2.1418383">00</tspan>
                                        </text>
                                    </g>
                                    <g transform="translate(0.000000, 14.248393)">
                                        <polygon id="Path" points="5.89972512 6.05556691 0.133578682 2.73836298 0.133578682 0.734682751 5.89972512 4.05188669"></polygon>
                                        <text id="00000" fill="#DFE6FD" font-family="Helvetica" font-size="1.91912492" font-weight="normal">
                                            <tspan x="0.148339126" y="1.0981358">000</tspan>
                                            <tspan x="0.148339126" y="2.0981358">00</tspan>
                                        </text>
                                    </g>
                                </g>
                            </g>
                            <g id="Group" transform="translate(73.468275, 10.686295)">
                                <path d="M49.8248484,32.1034099 L1.64747041,4.29678094 C0.845998319,3.82925555 0.178104909,2.56025807 0.178104909,1.49162861 L0.178104909,1.49162861 C0.178104909,0.400736046 0.845998319,-0.0890524546 1.64747041,0.378472932 L49.8248484,28.1851019 C50.6263205,28.6526273 51.2942139,29.9216248 51.2942139,30.9902542 L51.2942139,30.9902542 C51.316477,32.0588837 50.6485836,32.5709353 49.8248484,32.1034099 Z" id="Path" fill="#F9FBFF" fill-rule="nonzero"></path>
                                <g transform="translate(52.318317, 29.609941)" stroke="#F9FBFF" stroke-width="0.52238806">
                                    <ellipse id="Oval" transform="translate(2.055104, 2.542862) rotate(-23.753061) translate(-2.055104, -2.542862) " cx="2.05510357" cy="2.54286167" rx="1.26901139" ry="2.20407242"></ellipse>
                                    <line x1="3.18362525" y1="4.45262273" x2="4.80883255" y2="7.14645948" id="Path" stroke-linecap="round"></line>
                                </g>
                            </g>
                            <g id="Group" transform="translate(34.062564, 51.650424)" fill-rule="nonzero">
                                <path d="M31.6804107,27.1387355 C31.7694632,27.3391036 31.5023058,28.0292601 30.9012018,27.628524 C30.3000977,27.227788 28.8529953,25.7584225 27.806629,25.7584225 C26.7825257,25.7806856 22.4857448,25.3131602 22.7974284,23.710216 C23.1536382,21.8401145 23.4653218,21.9736932 23.9996365,21.7733252 C24.6675299,21.5284309 25.8252118,20.4152752 26.2704741,19.9922761 C26.7157364,19.5692769 28.4299961,17.7437016 27.6730503,20.0813285 C27.3613667,21.0163793 28.3854699,21.1722211 29.2092051,21.0163793 C30.0552034,20.8605375 33.0161976,20.170381 33.4837229,20.771485 C33.9289852,21.3725891 29.6989936,21.7955883 29.6989936,21.7955883 C29.6989936,21.7955883 33.9512483,22.4189555 34.2406688,23.0645857 C34.5300893,23.710216 33.1275131,23.5989005 32.2369886,23.4207956 C31.346464,23.2426907 29.6099412,23.3762693 30.0329403,23.6434267 C30.6340444,24.0441627 33.4837229,24.5784775 33.5950385,25.2463709 C33.7063541,25.9142643 29.7212567,24.6675299 29.4095731,24.8901611 C28.786206,25.3576865 31.346464,26.3817897 31.6804107,27.1387355 Z" id="Path" fill="#FED2F5"></path>
                                <path d="M9.01656103,8.30414139 C8.34866762,7.12419637 7.88114223,5.74388332 7.34682751,3.78472932 C6.81251278,1.80331221 5.09825303,-0.133578682 2.938731,0.267157364 C0.756945864,0.645630296 -0.0890524546,2.40441627 0.066789341,3.47304573 C0.534314728,6.6789341 6.21140871,13.8031305 6.85703901,14.5600763 C7.5026693,15.3170222 11.4877666,19.2575933 12.8680797,20.2149072 C14.2483927,21.1722211 20.370749,25.0905291 22.8642177,24.1332152 C23.3985325,23.9328472 23.9328472,22.3966923 23.5989005,21.929167 C20.7046957,17.8550172 13.0239215,15.3170222 9.01656103,8.30414139 Z" id="Path" fill="url(#linearGradient-10)"></path>
                            </g>
                            <path d="M54.255208,49.4463754 C54.0993662,50.1810582 53.1865785,51.7394761 52.6745269,52.0511597 C52.1624753,52.3628433 52.1624753,53.876735 52.2070015,54.2997342 C52.2515277,54.7227334 51.6949499,54.856312 51.516845,54.6782071 C51.3387401,54.5001022 50.8712147,54.5223653 50.6263205,54.9231014 C50.3814262,55.3238374 49.5131648,55.7245735 49.3350599,55.7690997 C49.156955,55.8136259 48.8897976,56.3034144 48.4222722,56.615098 C47.798905,57.0158341 47.6208001,55.9472046 45.6171199,54.4778391 C45.5725937,54.4333129 45.5058043,54.4110498 45.439015,54.3887867 C44.3926486,53.9435244 41.8323906,54.8785752 41.2758127,55.0789432 C41.2090234,55.1012063 41.1644971,55.1234694 41.1644971,55.1234694 L41.142234,55.0121538 L40.6747086,50.9602672 C40.6747086,50.9602672 40.9641291,50.5817942 41.4093914,50.0029533 C42.6115995,48.4222722 44.9047002,45.3944887 45.4612781,44.4371749 C46.2182239,43.1236512 49.4241123,42.4557577 51.9843704,43.9919126 C54.5446285,45.5280674 54.4110498,48.7116927 54.255208,49.4463754 Z" id="Path" fill="#FED2F5" fill-rule="nonzero"></path>
                            <path d="M72.3105932,34.2406688 C72.3105932,34.2406688 73.8244849,38.8046071 74.7817988,37.9808719 C75.7391127,37.1348736 76.0285331,36.6896113 77.765056,38.782344 C79.5015789,40.8750767 80.8596288,32.5709353 81.6165747,32.3928304 C82.3735205,32.2147255 83.0191508,32.7490402 83.7093073,35.5987187 C84.3994639,38.4483973 85.2231991,40.7860242 86.5367228,40.0068152 C87.8502465,39.2276063 87.8725096,44.0141757 88.8075604,44.7043322 C89.7426111,45.3944887 90.299189,45.7061723 91.1229242,46.7970649 C91.9466594,47.8879575 92.2360799,47.598537 92.6368159,46.2850133 C93.037552,44.9714896 94.1061814,36.6673482 94.9521797,36.8454531 C95.7981781,37.023558 96.3992821,50.938004 97.8241214,50.3591631 C99.2489607,49.7803221 99.3380131,49.0901656 99.8723279,50.9157409 C100.406643,52.7635794 100.629274,55.5242055 102.054113,54.9453645 C103.478952,54.3665235 106.75163,53.8099457 107.419523,52.6522638 C108.087417,51.4945819 109.489993,46.4631182 110.692201,47.4649583 C111.894409,48.4667984 111.716304,53.4537359 112.54004,54.7004703 C113.363775,55.9472046 113.809037,56.9713078 114.053931,58.8191463 C114.298826,60.6669847 114.988982,64.5852927 115.924033,64.3626616 C116.859084,64.1400304 117.371135,62.4257707 118.061292,60.3553011 C118.751448,58.2848316 120.643813,51.6726868 122.692019,57.3275177 C124.740226,62.9823485 124.562121,63.3385583 124.562121,63.3385583" id="Path" stroke="url(#linearGradient-11)" stroke-width="0.5" stroke-linecap="round"></path>
                            <path d="M45.439015,54.3887867 C44.3926486,53.9435244 41.8323906,54.8785752 41.2758127,55.0789432 C41.2312865,55.0566801 41.1867603,55.034417 41.1644971,55.0121538 L40.6969718,50.9602672 C40.6969718,50.9602672 40.9863922,50.5817942 41.4316545,50.0029533 C42.3444422,49.6690066 43.3240192,49.1792181 43.6357028,48.5558509 L43.6357028,48.5558509 C43.6357028,48.5558509 43.6357028,48.5558509 43.6357028,48.5558509 C43.7024921,48.4222722 43.7692814,48.3109566 43.8138077,48.177378 C43.8138077,48.177378 43.8138077,48.177378 43.8138077,48.177378 C43.8138077,48.177378 43.8138077,48.177378 43.8138077,48.177378 L43.8138077,48.177378 C43.8138077,48.177378 43.8138077,48.1551148 43.7915446,48.1105886 C43.7915446,48.1328517 43.8138077,48.1328517 43.8138077,48.1551148 C44.3703855,48.9565869 44.9937527,50.737636 45.439015,54.3887867 Z" id="Path" fill="url(#linearGradient-12)" fill-rule="nonzero"></path>
                            <g id="Group" transform="translate(0.000000, 99.738749)" fill-rule="nonzero">
                                <path d="M8.88298235,2.51573184 C8.88298235,2.51573184 6.38951362,3.07230968 4.98693746,4.98693746 L3.69567687,1.75878598 C3.69567687,1.75878598 6.43403985,0.356209818 7.21324882,0.0890524546 C7.9924578,-0.222631137 8.88298235,2.51573184 8.88298235,2.51573184 Z" id="Path" fill="#FED2F5"></path>
                                <path d="M0.356209818,2.58252118 C1.04636634,1.58068107 2.22631137,1.53615484 3.96283423,1.51389173 L5.61030464,4.51941207 C5.61030464,4.51941207 3.13909903,7.07967014 4.54167519,10.0184011 C5.67709398,12.3782912 4.74204321,12.7790272 3.80699244,12.5118699 C2.87194166,12.2447125 1.55841796,10.3078216 1.33578682,8.86071923 C1.11315568,7.41361685 1.53615484,6.56761853 0.512051614,5.58804153 C-0.111315568,4.98693746 -0.133578682,3.29494082 0.356209818,2.58252118 Z" id="Path" fill="#2E0E60"></path>
                            </g>
                            <g id="Group" transform="translate(29.832572, 99.516118)" fill-rule="nonzero">
                                <path d="M3.65115064,0.0222631137 C3.65115064,0.0222631137 3.22815148,2.56025807 4.47488584,4.5639383 L1.00184011,4.54167519 C1.00184011,4.54167519 0.734682751,1.49162861 0.756945864,0.66789341 C0.779208978,-0.155841796 3.65115064,0.0222631137 3.65115064,0.0222631137 Z" id="Path" fill="#FED2F5"></path>
                                <path d="M0.512051614,7.97019469 C-0.155841796,6.96835457 0.24489425,5.85519889 0.868261433,4.22999159 L4.27451782,3.82925555 C4.27451782,3.82925555 5.72162021,7.07967014 8.9720348,6.87930212 C11.5768191,6.72346032 11.5990822,7.72530044 10.9979781,8.50450942 C10.3968741,9.26145528 8.10377337,9.77350689 6.6789341,9.41729708 C5.25409482,9.08335037 4.63072764,8.37093073 3.33946705,8.9720348 C2.58252118,9.30598151 1.00184011,8.68261433 0.512051614,7.97019469 Z" id="Path" fill="#2E0E60"></path>
                            </g>
                            <g id="Group" transform="translate(6.233672, 68.347759)">
                                <path d="M28.3854699,32.1479361 C28.3409437,32.3037779 28.2741543,32.4596197 28.2296281,32.5931984 C28.0515232,33.1497762 27.5617347,33.5505123 27.0051569,33.6395647 C25.9587905,33.8176696 24.3781095,33.9735114 23.9773734,33.4391967 C23.5543742,32.8826189 23.3762693,32.125673 23.3762693,31.2796747 C23.3540062,27.0051569 27.5394716,19.8586974 25.9365274,16.6082828 C24.9124242,14.5378132 18.6564892,11.6213453 18.6564892,11.6213453 C18.6564892,11.6213453 16.9867557,11.1315568 18.1889639,13.6472887 C18.5896999,14.4710239 21.9736932,21.2167473 22.1072719,23.9773734 C22.1740612,25.3576865 21.1944842,26.9828938 18.7455417,28.3632068 C16.8309139,29.4540994 7.74756355,32.7935664 3.96283423,34.1738795 C2.938731,34.5523524 2.31536382,34.7749835 2.31536382,34.7749835 C2.31536382,34.7749835 -0.178104909,32.5264091 0.0445262273,31.546832 C0.200368023,30.9012018 0.66789341,30.3223608 1.35804993,29.7880461 C3.94057112,27.7621027 9.41729708,26.4263159 10.9979781,25.7361594 C12.9793953,24.867898 15.6954951,24.0664259 15.6954951,24.0664259 C14.0257616,20.170381 6.92382835,13.4469206 5.65483087,9.1278766 C5.00920057,6.96835457 6.32272428,0.111315568 6.32272428,0.111315568 L20.3262228,4.54167519 C20.3262228,4.54167519 24.2445308,7.54719553 27.0496831,9.1278766 C29.8548354,10.7085577 31.925305,13.1575002 32.1701992,15.0943911 C32.6599877,18.9236466 29.5654149,28.6303642 28.3854699,32.1479361 Z" id="Path" fill="url(#linearGradient-13)"></path>
                                <path d="M3.98509734,34.1961426 C2.96099412,34.5746155 2.33762693,34.7972466 2.33762693,34.7972466 C2.33762693,34.7972466 -0.155841796,32.5486722 0.066789341,31.5690952 C0.222631137,30.9234649 0.690156523,30.3446239 1.38031305,29.8103092 C1.959154,30.7898862 3.02778346,32.5264091 3.98509734,34.1961426 Z" id="Path" fill="url(#linearGradient-14)"></path>
                                <path d="M28.3854699,32.1479361 C28.3186806,32.326041 28.2741543,32.4818828 28.2296281,32.6377246 C28.0515232,33.1497762 27.6062609,33.5505123 27.0719462,33.6395647 C26.0255799,33.8176696 24.3781095,33.9957746 23.9996365,33.4614598 C23.5766374,32.904882 23.3985325,32.1479361 23.3985325,31.3019378 C24.5339512,31.4577796 26.5153684,31.7917263 28.3854699,32.1479361 Z" id="Path" fill="url(#linearGradient-15)"></path>
                            </g>
                            <path d="M41.3426021,55.0121538 C41.142234,55.6132579 36.4669802,63.4053477 35.9994548,64.2958722 C35.064404,65.9210795 33.3501443,67.3459188 31.9698312,68.5481269 C30.7008337,69.6390195 27.7621027,70.0397556 27.428156,71.9098571 C27.2945773,72.666803 27.0942093,72.9784866 26.8493151,73.0898021 L23.109112,71.8653309 L12.6231854,68.4590745 C13.4246575,66.8561303 14.3374452,64.251346 16.0517049,62.0027715 C18.5674368,58.6855676 21.751062,55.8804153 24.7788455,53.0529998 C25.8252118,52.095686 27.1387355,51.4945819 28.5190486,51.1383721 C31.0570435,50.4704787 33.7954065,50.4036893 36.4001908,50.3369 C37.4910834,50.2923737 38.6042391,50.2701106 39.6951316,50.2701106 C40.3407619,50.2701106 40.8750767,50.7153729 41.0086554,51.3610032 C41.0977078,51.8285286 41.2090234,52.4073695 41.2980758,52.9639474 C41.4093914,53.7876826 41.4761807,54.5891547 41.3426021,55.0121538 Z" id="Path" fill="url(#linearGradient-16)" fill-rule="nonzero"></path>
                            <path d="M33.8399328,62.9155592 C31.0570435,65.230923 28.7639428,63.6057157 26.0255799,66.1437107 C24.4671619,67.5908131 23.3317431,69.8393875 23.109112,71.9098571 L26.8493151,73.1343284 C27.0719462,73.0230128 27.2945773,72.7113292 27.428156,71.9543833 C27.7621027,70.0842818 30.7008337,69.6612826 31.9698312,68.5926532 C33.3724074,67.390445 35.0866671,65.9433426 35.9994548,64.3403985 L33.8399328,62.9155592 Z" id="Path" fill="url(#linearGradient-17)" fill-rule="nonzero"></path>
                            <path d="M40.0736046,49.6244803 L38.0253981,50.2923737 C38.0253981,50.2923737 40.6079193,54.8117858 40.6524455,56.2588882 L41.1644971,55.3238374 L42.2108635,54.7227334 C42.2108635,54.7227334 41.8101274,51.3387401 40.162657,49.5799541 L40.0736046,49.6244803 Z" id="Path" fill="url(#linearGradient-18)" fill-rule="nonzero"></path>
                            <path d="M45.839751,42.7451782 C47.3091165,41.2535496 49.5131648,41.5652332 50.0252164,41.6097594 C53.5205252,41.921443 55.8581522,45.2163838 56.013994,46.9751698 C56.0807833,47.8434312 55.8136259,48.578114 55.8136259,48.578114 C55.5464686,49.2905336 55.1012063,49.7357959 54.9008383,49.9361639 C54.0771031,50.7153729 52.5632113,51.4945819 51.2274245,51.0938458 C49.5799541,50.6040573 49.958427,48.3554829 48.6003771,48.5113247 C47.3536427,48.6671665 42.9232831,52.1624753 41.4539176,51.5613712 C41.1867603,51.4500557 41.0086554,50.7598991 41.0754447,50.4927418 C41.5429701,48.2664304 44.2368068,44.3703855 45.839751,42.7451782 Z" id="Path" fill="url(#linearGradient-19)" fill-rule="nonzero"></path>
                            <g id="Group" transform="translate(87.048774, 90.833504)" fill-rule="nonzero">
                                <polygon id="Path" fill="#FFFFFF" points="6.61214476 21.9736932 0.155841796 18.2334901 0.155841796 3.60662441 6.61214476 7.32456439"></polygon>
                                <polygon id="Path" fill="#E8E8E8" points="6.61214476 21.9736932 13.0684477 18.2334901 13.0684477 3.60662441 6.61214476 7.32456439"></polygon>
                                <polygon id="Path" fill="#E8E8E8" points="0.155841796 3.60662441 6.61214476 7.32456439 13.0684477 3.60662441 6.74572344 0.0222631137"></polygon>
                            </g>
                            <g id="Group" opacity="0.85" transform="translate(87.048774, 86.158250)" fill="#FFFFFF" fill-rule="nonzero">
                                <g id="Path">
                                    <polygon points="6.61214476 12.2224494 0.155841796 8.4822463 0.155841796 3.78472932 6.61214476 7.5026693"></polygon>
                                    <polygon points="6.61214476 12.2224494 13.0684477 8.4822463 13.0684477 3.78472932 6.61214476 7.5026693"></polygon>
                                    <polygon points="0.155841796 3.78472932 6.61214476 7.5026693 13.0684477 3.78472932 6.74572344 0.200368023"></polygon>
                                </g>
                            </g>
                            <g id="Group" transform="translate(56.103046, 73.023013)" fill-rule="nonzero">
                                <polygon id="Path" fill="#FFFFFF" points="6.5230923 22.129535 0.066789341 18.411595 0.066789341 3.78472932 6.5230923 7.5026693"></polygon>
                                <polygon id="Path" fill="#E8E8E8" points="6.5230923 22.129535 12.9793953 18.411595 12.9793953 3.78472932 6.5230923 7.5026693"></polygon>
                                <polygon id="Path" fill="#E8E8E8" points="0.066789341 3.78472932 6.5230923 7.5026693 12.9793953 3.78472932 6.65667098 0.200368023"></polygon>
                            </g>
                            <g id="Group" transform="translate(72.132488, 82.150889)" fill-rule="nonzero">
                                <polygon id="Path" fill="#FFFFFF" points="6.63440787 21.9514301 0.178104909 18.2334901 0.178104909 3.60662441 6.63440787 7.32456439"></polygon>
                                <polygon id="Path" fill="#E8E8E8" points="6.63440787 21.9514301 13.0907108 18.2334901 13.0907108 3.60662441 6.63440787 7.32456439"></polygon>
                                <polygon id="Path" fill="#E8E8E8" points="0.178104909 3.60662441 6.63440787 7.32456439 13.0907108 3.60662441 6.76798655 0.0222631137"></polygon>
                            </g>
                            <g id="Group" opacity="0.85" transform="translate(72.132488, 77.475636)" fill="#FFFFFF" fill-rule="nonzero">
                                <g id="Path">
                                    <polygon points="6.63440787 12.2001863 0.178104909 8.4822463 0.178104909 3.78472932 6.63440787 7.5026693"></polygon>
                                    <polygon points="6.63440787 12.2001863 13.0907108 8.4822463 13.0907108 3.78472932 6.63440787 7.5026693"></polygon>
                                    <polygon points="0.178104909 3.78472932 6.63440787 7.5026693 13.0907108 3.78472932 6.76798655 0.200368023"></polygon>
                                </g>
                            </g>
                            <g id="Group" opacity="0.85" transform="translate(56.103046, 68.347759)" fill="#FFFFFF" fill-rule="nonzero">
                                <g id="Path">
                                    <polygon points="6.5230923 12.2001863 0.066789341 8.4822463 0.066789341 3.78472932 6.5230923 7.5026693"></polygon>
                                    <polygon points="6.5230923 12.2001863 12.9793953 8.4822463 12.9793953 3.78472932 6.5230923 7.5026693"></polygon>
                                    <polygon points="0.066789341 3.78472932 6.5230923 7.5026693 12.9793953 3.78472932 6.65667098 0.200368023"></polygon>
                                </g>
                            </g>
                            <g id="Group" transform="translate(29.609941, 55.657784)" fill-rule="nonzero">
                                <path d="M31.7917263,27.0496831 C31.8807788,27.2500511 31.6136214,27.9402076 31.0125173,27.5394716 C30.4114133,27.1164724 28.9643109,25.66937 27.9179445,25.66937 C26.8715782,25.66937 22.5970604,25.2241078 22.908744,23.6211636 C23.2649538,21.751062 23.5766374,21.8846407 24.1109521,21.6842727 C24.7788455,21.4393785 25.9365274,20.3262228 26.3817897,19.9032236 C26.827052,19.4802244 28.5413117,17.6546491 27.7843658,19.9922761 C27.4726823,20.9273268 28.4967855,21.0831686 29.3205207,20.9273268 C30.1442559,20.771485 33.1275131,20.0813285 33.5950385,20.6824326 C34.0403008,21.2835367 29.8103092,21.7065358 29.8103092,21.7065358 C29.8103092,21.7065358 34.0625639,22.329903 34.3519844,22.9755333 C34.6414048,23.6211636 33.2388287,23.509848 32.3483041,23.3317431 C31.4577796,23.1536382 29.7212567,23.2872169 30.1442559,23.5543742 C30.74536,23.9551103 33.5950385,24.489425 33.7063541,25.1573184 C33.8176696,25.8252118 29.8325723,24.5784775 29.5208887,24.8011086 C28.9197846,25.2463709 31.4800427,26.2927372 31.7917263,27.0496831 Z" id="Path" fill="#FED2F5"></path>
                                <path d="M9.1278766,8.19282583 C8.45998319,7.0128808 7.9924578,5.63256775 7.45814307,3.67341375 C6.92382835,1.71425975 5.2095686,-0.24489425 3.05004657,0.155841796 C0.868261433,0.534314728 0.0222631137,2.29310071 0.178104909,3.36173016 C0.645630296,6.56761853 6.32272428,13.6918149 6.96835457,14.4487608 C7.61398487,15.2057066 11.5990822,19.1462777 12.9793953,20.1035916 C14.3597083,21.0609055 20.4820646,24.9792135 22.9755333,24.0218996 C23.509848,23.8215316 24.0441627,22.2853768 23.710216,21.8178514 C20.8160113,17.7437016 13.1352371,15.2279697 9.1278766,8.19282583 Z" id="Path" fill="url(#linearGradient-20)"></path>
                            </g>
                        </g>
                    </g>
                </g>
            </g>
        </g>
    </g>
</svg>