<?xml version="1.0" encoding="UTF-8"?>
<svg width="180px" height="140px" viewBox="0 0 180 140" version="1.1" xmlns="http://www.w3.org/2000/svg" xmlns:xlink="http://www.w3.org/1999/xlink">
    <title>4B5004E4-1E38-4C16-AED2-90FE80CEB666</title>
    <defs>
        <linearGradient x1="124.31875%" y1="9.49219906%" x2="-15.7072917%" y2="99.0390055%" id="linearGradient-1">
            <stop stop-color="#BB0E29" offset="0%"></stop>
            <stop stop-color="#FBFFC1" offset="100%"></stop>
        </linearGradient>
        <linearGradient x1="0.0833333333%" y1="50.018031%" x2="100.012462%" y2="50.018031%" id="linearGradient-2">
            <stop stop-color="#0C0982" offset="1.813472%"></stop>
            <stop stop-color="#4F5AE0" offset="100%"></stop>
        </linearGradient>
        <linearGradient x1="50.0478979%" y1="57.0146961%" x2="50.0478979%" y2="1.39281768%" id="linearGradient-3">
            <stop stop-color="#0C0982" offset="1.813472%"></stop>
            <stop stop-color="#4F5AE0" offset="100%"></stop>
        </linearGradient>
        <linearGradient x1="50.8233006%" y1="0.075564409%" x2="50.8233006%" y2="93.722178%" id="linearGradient-4">
            <stop stop-color="#0C0982" offset="1.813472%"></stop>
            <stop stop-color="#4F5AE0" offset="100%"></stop>
        </linearGradient>
        <linearGradient x1="50.8233006%" y1="1.32576361%" x2="50.8233006%" y2="94.9723772%" id="linearGradient-5">
            <stop stop-color="#0C0982" offset="1.813472%"></stop>
            <stop stop-color="#4F5AE0" offset="100%"></stop>
        </linearGradient>
        <linearGradient x1="50%" y1="0%" x2="50%" y2="80.5945159%" id="linearGradient-6">
            <stop stop-color="#FFDEA7" offset="0%"></stop>
            <stop stop-color="#EA6362" offset="100%"></stop>
        </linearGradient>
        <linearGradient x1="0%" y1="48.0319524%" x2="100%" y2="51.9680476%" id="linearGradient-7">
            <stop stop-color="#FFDEA7" offset="0%"></stop>
            <stop stop-color="#EA6362" offset="100%"></stop>
        </linearGradient>
        <linearGradient x1="182.548144%" y1="146.747329%" x2="35.9642967%" y2="100%" id="linearGradient-8">
            <stop stop-color="#EA6362" offset="0%"></stop>
            <stop stop-color="#FFDEA7" offset="100%"></stop>
        </linearGradient>
        <linearGradient x1="50%" y1="0%" x2="50%" y2="80.5945159%" id="linearGradient-9">
            <stop stop-color="#FFDEA7" offset="0%"></stop>
            <stop stop-color="#EA6362" offset="100%"></stop>
        </linearGradient>
        <linearGradient x1="35.9642967%" y1="0%" x2="64.0357033%" y2="100%" id="linearGradient-10">
            <stop stop-color="#FFDEA7" offset="0%"></stop>
            <stop stop-color="#EA6362" offset="100%"></stop>
        </linearGradient>
        <linearGradient x1="50%" y1="104.640414%" x2="50%" y2="0%" id="linearGradient-11">
            <stop stop-color="#FFDEA7" offset="0%"></stop>
            <stop stop-color="#EA6362" offset="100%"></stop>
        </linearGradient>
        <linearGradient x1="56.4426144%" y1="92.236184%" x2="50%" y2="4.20995102%" id="linearGradient-12">
            <stop stop-color="#EFBFD5" offset="0%"></stop>
            <stop stop-color="#9D61FD" offset="100%"></stop>
        </linearGradient>
        <linearGradient x1="0.00263561596%" y1="49.8782935%" x2="100.109439%" y2="49.8782935%" id="linearGradient-13">
            <stop stop-color="#3E0A99" offset="1.813472%"></stop>
            <stop stop-color="#773CBD" offset="100%"></stop>
        </linearGradient>
        <linearGradient x1="49.9426204%" y1="-4.09853293%" x2="49.9426204%" y2="102.640442%" id="linearGradient-14">
            <stop stop-color="#3E0A99" offset="1.813472%"></stop>
            <stop stop-color="#773CBD" offset="100%"></stop>
        </linearGradient>
        <linearGradient x1="49.9523009%" y1="50.0379917%" x2="50.0150737%" y2="50.0024288%" id="linearGradient-15">
            <stop stop-color="#01C3FA" offset="1.813472%"></stop>
            <stop stop-color="#01A1F3" offset="100%"></stop>
        </linearGradient>
        <linearGradient x1="50.0074041%" y1="-4.19083333%" x2="50.0074041%" y2="102.385%" id="linearGradient-16">
            <stop stop-color="#0C0982" offset="1.813472%"></stop>
            <stop stop-color="#4F5AE0" offset="100%"></stop>
        </linearGradient>
        <linearGradient x1="0%" y1="0.0324276825%" x2="117.692718%" y2="110.975877%" id="linearGradient-17">
            <stop stop-color="#9B3CB7" offset="0%"></stop>
            <stop stop-color="#FF396F" offset="100%"></stop>
        </linearGradient>
        <linearGradient x1="9.20915713%" y1="0%" x2="105.224861%" y2="111.015449%" id="linearGradient-18">
            <stop stop-color="#9B3CB7" offset="0%"></stop>
            <stop stop-color="#FF396F" offset="100%"></stop>
        </linearGradient>
        <linearGradient x1="-22.5962726%" y1="42.9888042%" x2="86.4270501%" y2="53.52649%" id="linearGradient-19">
            <stop stop-color="#3E0A99" offset="1.813472%"></stop>
            <stop stop-color="#773CBD" offset="100%"></stop>
        </linearGradient>
        <linearGradient x1="-21.5680511%" y1="45.1331144%" x2="85.9106496%" y2="52.4480053%" id="linearGradient-20">
            <stop stop-color="#F47ABD" offset="1.813472%"></stop>
            <stop stop-color="#F7ABD8" offset="100%"></stop>
        </linearGradient>
        <linearGradient x1="49.9972334%" y1="-16.9290257%" x2="49.9972334%" y2="80.0097752%" id="linearGradient-21">
            <stop stop-color="#D5D5D9" offset="0%"></stop>
            <stop stop-color="#30313C" offset="100%"></stop>
        </linearGradient>
        <linearGradient x1="49.9972334%" y1="-16.9290257%" x2="49.9972334%" y2="80.0097752%" id="linearGradient-22">
            <stop stop-color="#D5D5D9" offset="0%"></stop>
            <stop stop-color="#30313C" offset="100%"></stop>
        </linearGradient>
        <linearGradient x1="0.209166667%" y1="49.9825641%" x2="100.209167%" y2="49.9825641%" id="linearGradient-23">
            <stop stop-color="#0C0982" offset="1.813472%"></stop>
            <stop stop-color="#4F5AE0" offset="100%"></stop>
        </linearGradient>
        <linearGradient x1="124.31875%" y1="48.7511728%" x2="-15.7072917%" y2="51.5118383%" id="linearGradient-24">
            <stop stop-color="#BB0E29" offset="0%"></stop>
            <stop stop-color="#FBFFC1" offset="100%"></stop>
        </linearGradient>
        <linearGradient x1="-4.62941176%" y1="49.9965517%" x2="105.277647%" y2="49.9965517%" id="linearGradient-25">
            <stop stop-color="#E1EEF9" offset="0%"></stop>
            <stop stop-color="#E1EEF9" stop-opacity="0.8523" offset="100%"></stop>
        </linearGradient>
        <linearGradient x1="42.8942781%" y1="11.5082182%" x2="58.1192816%" y2="78.8508954%" id="linearGradient-26">
            <stop stop-color="#D4FF51" offset="0%"></stop>
            <stop stop-color="#69D629" offset="100%"></stop>
        </linearGradient>
        <linearGradient x1="-17.944%" y1="49.9866667%" x2="116.272%" y2="49.9866667%" id="linearGradient-27">
            <stop stop-color="#E1EEF9" offset="0%"></stop>
            <stop stop-color="#E1EEF9" stop-opacity="0.8523" offset="100%"></stop>
        </linearGradient>
        <linearGradient x1="50%" y1="0%" x2="50%" y2="97.3772321%" id="linearGradient-28">
            <stop stop-color="#FFEF50" offset="0%"></stop>
            <stop stop-color="#FF9E4E" offset="100%"></stop>
        </linearGradient>
        <linearGradient x1="49.973694%" y1="110.042605%" x2="49.973694%" y2="-49.8719647%" id="linearGradient-29">
            <stop stop-color="#E1EEF9" offset="0%"></stop>
            <stop stop-color="#E1EEF9" stop-opacity="0.8523" offset="100%"></stop>
        </linearGradient>
        <linearGradient x1="-1.25035356%" y1="49.9915097%" x2="101.300179%" y2="49.9915097%" id="linearGradient-30">
            <stop stop-color="#E1EEF9" offset="0%"></stop>
            <stop stop-color="#E1EEF9" stop-opacity="0.8523" offset="100%"></stop>
        </linearGradient>
        <linearGradient x1="-1.57669492%" y1="50.0473684%" x2="101.976271%" y2="50.0473684%" id="linearGradient-31">
            <stop stop-color="#E1EEF9" offset="0%"></stop>
            <stop stop-color="#E1EEF9" stop-opacity="0.8523" offset="100%"></stop>
        </linearGradient>
        <linearGradient x1="43.6722214%" y1="52.7049754%" x2="56.3989734%" y2="47.1322362%" id="linearGradient-32">
            <stop stop-color="#E1EEF9" offset="0%"></stop>
            <stop stop-color="#E1EEF9" stop-opacity="0.8523" offset="100%"></stop>
        </linearGradient>
        <linearGradient x1="46.8981769%" y1="11.5082182%" x2="53.5442669%" y2="78.8508954%" id="linearGradient-33">
            <stop stop-color="#D4FF51" offset="0%"></stop>
            <stop stop-color="#69D629" offset="100%"></stop>
        </linearGradient>
        <linearGradient x1="50%" y1="0%" x2="50%" y2="97.3772321%" id="linearGradient-34">
            <stop stop-color="#FFEF50" offset="0%"></stop>
            <stop stop-color="#FF9E4E" offset="100%"></stop>
        </linearGradient>
        <linearGradient x1="101.858898%" y1="49.9565531%" x2="-1.6940678%" y2="49.9565531%" id="linearGradient-35">
            <stop stop-color="#E1EEF9" offset="0%"></stop>
            <stop stop-color="#E1EEF9" stop-opacity="0.8523" offset="100%"></stop>
        </linearGradient>
        <linearGradient x1="99.8140278%" y1="49.9414892%" x2="-0.0600719107%" y2="49.9414892%" id="linearGradient-36">
            <stop stop-color="#E1EEF9" offset="0%"></stop>
            <stop stop-color="#E1EEF9" stop-opacity="0.8523" offset="100%"></stop>
        </linearGradient>
        <linearGradient x1="14.0565154%" y1="57.9304152%" x2="86.5557555%" y2="42.31717%" id="linearGradient-37">
            <stop stop-color="#E1EEF9" offset="0%"></stop>
            <stop stop-color="#E1EEF9" stop-opacity="0.8523" offset="100%"></stop>
        </linearGradient>
    </defs>
    <g id="Usability-Testing" stroke="none" stroke-width="1" fill="none" fill-rule="evenodd">
        <g id="Step-2---Welcome" transform="translate(-610.000000, -456.000000)">
            <g id="Illusrations" transform="translate(300.000000, 435.000000)">
                <g id="Comp-perso" transform="translate(294.000000, 0.000000)">
                    <g id="Illustration/Personal" transform="translate(16.000000, 21.000000)">
                        <g>
                            <path d="M19.6241379,52.9586207 C31.9586207,34.3241379 27.5655172,26.3586207 36.3517241,20.4206897 C49.1448276,11.7793103 61.237931,26.7689655 84.1448276,21.1931034 C105.627586,15.9551724 107.968966,-0.362068966 123.586207,0.120689655 C137.393103,0.531034483 153.275862,13.8310345 156.244828,28.8448276 C161.096552,53.3206897 127.882759,63.7 126.362069,99.6896552 C125.613793,117.406897 133.144828,127.158621 127.158621,131.865517 C116.731034,140.072414 90.3482759,113.134483 68.2137931,123.055172 C57.062069,128.051724 58.4137931,137.272414 49.4827586,139.131034 C28.7724138,143.475862 -7.72413793,99.8827586 1.68965517,74.7793103 C4.75517241,66.6206897 10.0413793,67.4413793 19.6241379,52.9586207 Z" id="Path" fill="url(#linearGradient-1)" opacity="0.189476376"></path>
                            <g id="Group" transform="translate(11.344828, 26.793103)">
                                <g transform="translate(0.000000, 17.620690)" id="Path">
                                    <g>
                                        <path d="M6.17931034,61.937931 C5.64827586,61.937931 5.2137931,61.5034483 5.2137931,60.9724138 C5.2137931,55.4448276 6.75862069,50.2551724 9.53448276,46.3448276 C12.3827586,42.337931 16.2206897,40.1172414 20.3241379,40.1172414 C20.8551724,40.1172414 21.2896552,40.5517241 21.2896552,41.0827586 C21.2896552,41.6137931 20.8551724,42.0482759 20.3241379,42.0482759 C13.0586207,42.0482759 7.14482759,50.5448276 7.14482759,60.9965517 C7.14482759,61.5034483 6.71034483,61.937931 6.17931034,61.937931 Z" fill="url(#linearGradient-2)" fill-rule="nonzero"></path>
                                        <path d="M51.2206897,61.6965517 C50.6896552,61.6965517 50.2551724,61.262069 50.2551724,60.7310345 C50.2551724,50.2793103 44.3413793,41.7827586 37.0758621,41.7827586 C36.5448276,41.7827586 36.1103448,41.3482759 36.1103448,40.8172414 C36.1103448,40.2862069 36.5448276,39.8517241 37.0758621,39.8517241 C41.1793103,39.8517241 45.0172414,42.0724138 47.8655172,46.0793103 C50.6413793,49.9896552 52.1862069,55.2034483 52.1862069,60.7068966 C52.1862069,61.262069 51.7517241,61.6965517 51.2206897,61.6965517 Z" fill="url(#linearGradient-3)" fill-rule="nonzero"></path>
                                        <path d="M6.20344828,62.0344828 L6.20344828,62.0344828 C5.6,62.0344828 5.11724138,61.5517241 5.11724138,60.9482759 L5.11724138,43.8586207 L7.26551724,43.8586207 L7.26551724,60.9482759 C7.28965517,61.5517241 6.80689655,62.0344828 6.20344828,62.0344828 Z" fill="url(#linearGradient-4)" fill-rule="nonzero"></path>
                                        <path d="M51.3413793,61.7931034 L51.3413793,61.7931034 C50.737931,61.7931034 50.2551724,61.3103448 50.2551724,60.7068966 L50.2551724,43.6172414 L52.4034483,43.6172414 L52.4034483,60.7068966 C52.4275862,61.3103448 51.9448276,61.7931034 51.3413793,61.7931034 Z" fill="url(#linearGradient-5)" fill-rule="nonzero"></path>
                                        <g>
                                            <path d="M51.7275862,4.36896552 L51.7275862,28.337931 C51.7275862,30.6551724 49.8448276,32.537931 47.5275862,32.537931 L9.67931034,32.537931 C7.36206897,32.537931 5.47931034,30.6551724 5.47931034,28.337931 L5.47931034,4.36896552 C5.47931034,3.40344828 5.81724138,2.4862069 6.37241379,1.7862069 C7.14482759,0.796551724 8.32758621,0.168965517 9.67931034,0.168965517 L47.5275862,0.168965517 C48.8793103,0.168965517 50.0862069,0.820689655 50.8586207,1.81034483 C51.3896552,2.51034483 51.7275862,3.40344828 51.7275862,4.36896552 Z" fill="url(#linearGradient-6)"></path>
                                            <path d="M57.2068966,32.562069 L57.2068966,39.1517241 C57.2068966,41.7827586 55.0827586,43.9068966 52.4517241,43.9068966 L4.77931034,43.9068966 C2.14827586,43.9068966 0.024137931,41.7827586 0.024137931,39.1517241 L0.024137931,32.562069 L57.2068966,32.562069 Z" fill="url(#linearGradient-7)"></path>
                                            <path d="M10.9344828,15.3034483 L10.9344828,33.8413793 L0,33.8413793 L0,15.3034483 C0,14.1448276 0.94137931,13.2034483 2.1,13.2034483 L8.83448276,13.2034483 C9.99310345,13.2034483 10.9344828,14.1448276 10.9344828,15.3034483 Z" fill="url(#linearGradient-8)"></path>
                                            <path d="M10.9344828,33.9137931 L10.9344828,33.9137931 C10.9344828,31.9344828 12.5275862,30.3413793 14.5068966,30.3413793 L42.6758621,30.3413793 C44.6551724,30.3413793 46.2482759,31.9344828 46.2482759,33.9137931 L46.2482759,33.9137931" fill="url(#linearGradient-9)"></path>
                                            <path d="M57.2068966,15.3034483 L57.2068966,33.8413793 L46.2724138,33.8413793 L46.2724138,15.3034483 C46.2724138,14.1448276 47.2137931,13.2034483 48.3724138,13.2034483 L55.1068966,13.2034483 C56.2655172,13.2034483 57.2068966,14.1448276 57.2068966,15.3034483 Z" fill="url(#linearGradient-10)"></path>
                                        </g>
                                    </g>
                                    <path d="M50.8586207,1.81034483 C47.7448276,10.9827586 43.7137931,22.4965517 28.6758621,22.2310345 C28.6517241,22.2310345 28.6034483,22.2310345 28.5793103,22.2310345 C13.5172414,22.4965517 9.51034483,10.9586207 6.39655172,1.7862069 C7.16896552,0.796551724 8.35172414,0.168965517 9.70344828,0.168965517 L47.5517241,0.168965517 C48.8793103,0.168965517 50.0862069,0.820689655 50.8586207,1.81034483 Z" fill="url(#linearGradient-11)"></path>
                                </g>
                                <g transform="translate(7.000000, 0.000000)" id="Path">
                                    <g transform="translate(0.000000, 1.931034)">
                                        <path d="M17.1862069,9.00344828 C17.1862069,9.00344828 17.2344828,11.9965517 18.2,13.2275862 C19.1655172,14.4586207 19.8655172,16.0517241 20.9758621,16.0034483 C22.0862069,15.9551724 24.4275862,14.6034483 25.4413793,12.5034483 L26.2137931,10.5 C26.2137931,10.5 26.7206897,10.6448276 27.2275862,9.70344828 C27.7103448,8.73793103 26.5275862,5.40689655 25.5862069,4.36896552 C23.8965517,2.53448276 17.862069,-0.193103448 17.1862069,9.00344828 Z" fill="#F6E5F3" fill-rule="nonzero"></path>
                                        <path d="M18.4413793,16.1965517 C18.4413793,16.1965517 19.3103448,15.5931034 19.3344828,14.1206897 C19.3586207,12.6482759 24.5482759,12.4793103 24.5482759,12.4793103 C24.5482759,12.4793103 25.2965517,16.9689655 26.3103448,17.862069 C27.3241379,18.7551724 24.8137931,27.5655172 24.4275862,28.0724138 C24.0172414,28.5793103 21.7241379,29.7862069 20.7586207,27.2758621 C19.7931034,24.7896552 18.2482759,19.7206897 18.4413793,16.1965517 Z" fill="#F6E5F3" fill-rule="nonzero"></path>
                                        <path d="M22.9310345,3.71724138 C22.9310345,3.71724138 20.7103448,7.3137931 19.0689655,7.43448276 C17.4034483,7.55517241 17.0655172,8.56896552 17.2103448,9.38965517 C17.3551724,10.1862069 16.4862069,8.25517241 16.3896552,7.74827586 C16.2931034,7.24137931 15.762069,-1.90689655 22.6413793,0.651724138 C22.8586207,0.724137931 23.2448276,1.0862069 23.462069,1.18275862 C24.5482759,1.73793103 26.237931,2.26896552 26.9137931,4.65862069 C27.5896552,7.04827586 27.3965517,7.62758621 27.1551724,8.15862069 C26.9137931,8.68965517 25.9965517,7.12068966 25.9724138,8.27931034 C25.9482759,9.43793103 25.9482759,10.4517241 25.6827586,10.7655172 C25.4172414,11.0793103 25.0310345,11.2482759 25.0310345,11.2482759 C25.0310345,11.2482759 25.7310345,10.2827586 25.3448276,8.52068966 C24.9586207,6.75862069 24.7172414,6.01034483 24.7172414,6.34827586 C24.7172414,6.6862069 25.0068966,9.92068966 24.4758621,9.4137931 C23.9448276,8.90689655 23.1241379,7.36206897 23.0275862,6.56551724 C22.9068966,5.84137931 23.2206897,4.68275862 22.9310345,3.71724138 Z" fill="#161115" fill-rule="nonzero"></path>
                                        <path d="M11.0551724,20.5172414 C11.0551724,20.5172414 14.1931034,15.7137931 18.4413793,16.1965517 C18.4413793,16.1965517 19.0689655,26.1413793 21.7,25.9724138 C24.3310345,25.8034483 25.7551724,18.8517241 25.8517241,17.7655172 C25.9482759,16.6793103 27.662069,18.1275862 29.2310345,19.262069 C30.8,20.3965517 31.1862069,21 31.5482759,22.2551724 C31.9103448,23.5103448 27.2275862,28.3137931 27.0344828,32.6344828 C26.8413793,36.9551724 26.8413793,36.9551724 26.8413793,36.9551724 L27.3482759,38.6931034 C27.3482759,38.6931034 22.8344828,41.5655172 22.0137931,42.4827586 C21.1931034,43.4 12.8896552,41.0827586 12.1172414,40.7448276 C11.3448276,40.4068966 12.8413793,37.7758621 13.2034483,35.6034483 C13.5655172,33.4310345 13.1068966,28.1448276 12.8413793,27.2517241 C12.5758621,26.3827586 13.4448276,25.9724138 13.4206897,25.2241379 C13.3965517,24.4758621 12.4310345,21.4344828 11.0551724,20.5172414 Z" fill="url(#linearGradient-12)"></path>
                                        <path d="M6.03448276,44.9206897 C6.03448276,44.9206897 4.00689655,44.0517241 3.52413793,45.0172414 C3.04137931,45.9586207 3.76551724,46.2482759 3.76551724,46.2482759 C3.76551724,46.2482759 3.13793103,46.7068966 3.57241379,47.1655172 C4.00689655,47.6241379 5.45517241,47.6241379 7,47.9137931 C8.54482759,48.2034483 11.562069,47.4793103 11.562069,47.4793103 L6.03448276,44.9206897 Z" fill="#F6E5F3" fill-rule="nonzero"></path>
                                        <path d="M19.4551724,42.9413793 C19.4551724,42.9413793 24.7413793,39.6344828 25.8758621,39.1517241 C27.0344828,38.6689655 30.0517241,36.762069 30.5344828,36.5689655 C31.0172414,36.3758621 34.5413793,34.4931034 36.4241379,34.9517241 C38.3068966,35.4103448 39.3931034,36.4482759 39.537931,38.3310345 C39.6827586,40.2137931 39.6344828,40.8655172 38.9103448,42.0724138 C38.1862069,43.3034483 36.3275862,44.7034483 34.0586207,45.7655172 C31.7896552,46.8034483 27.5896552,46.6827586 24.6689655,45.7655172 C21.7482759,44.8241379 19.4551724,42.9413793 19.4551724,42.9413793 Z" fill="url(#linearGradient-13)" fill-rule="nonzero"></path>
                                        <g transform="translate(0.000000, 35.965517)" fill-rule="nonzero">
                                            <path d="M40.1655172,9.43793103 C39.9241379,10.4034483 39.0551724,10.9103448 37.8965517,10.9586207 C36.737931,10.9827586 32.5137931,12.1413793 31.6448276,12.1896552 C30.8965517,12.237931 29.3275862,12.6482759 28.5793103,12.6482759 C25.7793103,12.962069 21.3862069,12.1413793 20.2517241,11.9241379 C20.5413793,11.2241379 21.4344828,9.89655172 21.8931034,9.24482759 C23.7275862,9.63103448 27.2758621,9.99310345 28.2172414,10.0896552 C28.7965517,9.84827586 30.0275862,9.38965517 30.9689655,9.34137931 C32.2482759,9.26896552 35.4103448,6.83103448 36.1103448,6.75862069 C36.8103448,6.6862069 37.3655172,6.95172414 37.8482759,6.6137931 C38.3310345,6.27586207 39.537931,6.56551724 39.7793103,7.28965517 C40.0206897,8.0137931 39.7793103,8.20689655 39.7793103,8.20689655 C39.7793103,8.20689655 40.4068966,8.49655172 40.1655172,9.43793103 Z" fill="#F6E5F3"></path>
                                            <path d="M23.9689655,9.24482759 C23.5344828,9.89655172 22.6172414,11.2241379 22.3275862,11.9241379 C22.1586207,11.9 22.062069,11.8758621 22.062069,11.8758621 L23.462069,9.12413793 C23.6068966,9.17241379 23.8,9.19655172 23.9689655,9.24482759 Z" fill="#FED2F5"></path>
                                            <path d="M24.2344828,8.88275862 C24.2344828,8.88275862 24.137931,9.02758621 23.9931034,9.24482759 C23.5586207,9.89655172 22.6413793,11.2241379 22.3517241,11.9241379 C22.2793103,12.0931034 22.2551724,12.2137931 22.2551724,12.2862069 C22.2551724,12.2862069 10.3068966,12.0206897 7.3862069,10.8862069 C4.46551724,9.75172414 1.18275862,7.89310345 0.917241379,6.85517241 C0.917241379,6.85517241 -0.555172414,4.65862069 0.555172414,2.46206897 C1.66551724,0.265517241 4.32068966,-0.579310345 6.97586207,0.772413793 C9.63103448,2.1 21.3137931,7.94137931 24.2344828,8.88275862 Z" fill="url(#linearGradient-14)"></path>
                                        </g>
                                        <path d="M17.9344828,38.6206897 C18.6344828,39.0551724 20.2275862,42.4344828 20.637931,43.1586207 C21.0482759,43.8827586 21.4827586,46.1034483 21.6034483,47.0448276 C21.7241379,47.9862069 21.7724138,49.2655172 21.4586207,49.362069 C21.1448276,49.4586207 20.7344828,48.8793103 20.7586207,48.2034483 C20.7827586,47.5275862 20.3241379,45.8137931 20.3241379,46.537931 C20.3241379,47.262069 19.962069,49.7482759 19.2862069,49.7965517 C18.6103448,49.8448276 19.1896552,46.4655172 19.0931034,46.2241379 C18.9965517,45.9827586 18.8517241,48.0586207 18.7793103,48.5896552 C18.7068966,49.1448276 18.6344828,49.4103448 18.1758621,49.362069 C17.7172414,49.3137931 17.9344828,45.1137931 17.7655172,44.8 C17.6206897,44.4862069 17.5482759,45.9103448 17.5482759,46.1758621 C17.5241379,46.4413793 17.6206897,47.8896552 17.0413793,47.8172414 C16.462069,47.7448276 16.5586207,45.1137931 16.5586207,44.462069 C16.5586207,43.8103448 15.7137931,42.5310345 15.737931,41.662069 C15.762069,40.7931034 15.4724138,40.4310345 15.4724138,40.4310345 C15.1586207,40.262069 13.4448276,39.8517241 13.4448276,39.8517241 C13.1068966,39.7551724 12.6482759,39.6103448 12.0931034,39.4172414 C11.3448276,39.1517241 10.5,38.8137931 9.72758621,38.3793103 C7.89310345,37.3655172 6.32413793,36.7862069 4.22413793,36.7137931 C2.12413793,36.6413793 2.87241379,34.7586207 3.08965517,33.937931 C3.30689655,33.0931034 5.35862069,29.5206897 7,27.2758621 C8.64137931,25.0310345 9.43793103,23.7758621 10.1137931,22.5206897 C10.3310345,22.1103448 10.8137931,21.2172414 11.1517241,20.5172414 C11.2241379,20.3482759 11.2965517,20.2034483 11.3689655,20.0827586 L11.6586207,19.7206897 C12.937931,20.9758621 13.3965517,24.2586207 13.4689655,24.9827586 C13.5413793,25.4896552 13.2034483,25.9724138 12.962069,26.3103448 C12.8413793,26.4551724 12.7448276,26.5758621 12.6965517,26.6482759 C12.5275862,26.9137931 8.54482759,32.9965517 8.54482759,32.9965517 C7.94137931,33.7448276 8.47241379,33.7448276 9.17241379,34.2275862 L17.9344828,38.6206897 Z" fill="#F6E5F3" fill-rule="nonzero"></path>
                                        <path d="M24.837931,40.0206897 C24.137931,40.4551724 22.5448276,43.8344828 22.1344828,44.5586207 C21.7241379,45.2827586 21.2896552,47.5034483 21.1689655,48.4448276 C21.0482759,49.3862069 21,50.6655172 21.3137931,50.762069 C21.6275862,50.8586207 22.037931,50.2793103 22.0137931,49.6034483 C21.9896552,48.9275862 22.4482759,47.2137931 22.4482759,47.937931 C22.4482759,48.662069 22.8103448,51.1482759 23.4862069,51.1965517 C24.162069,51.2448276 23.5827586,47.8655172 23.6793103,47.6241379 C23.7758621,47.3827586 23.9206897,49.4586207 23.9931034,49.9896552 C24.0655172,50.5448276 24.137931,50.8103448 24.5965517,50.762069 C25.0551724,50.7137931 24.837931,46.5137931 25.0068966,46.2 C25.1517241,45.8862069 25.2241379,47.3103448 25.2241379,47.5758621 C25.2482759,47.8413793 25.1517241,49.2896552 25.7310345,49.2172414 C26.3103448,49.1448276 26.2137931,46.5137931 26.2137931,45.862069 C26.2137931,45.2103448 27.0586207,43.9310345 27.0344828,43.062069 C27.0103448,42.1931034 27.3,41.8310345 27.3,41.8310345 C27.6137931,41.662069 29.3275862,41.2517241 29.3275862,41.2517241 C29.6655172,41.1551724 30.1241379,41.0103448 30.6793103,40.8172414 C31.4275862,40.5517241 32.2724138,40.2137931 33.0448276,39.7793103 C34.8793103,38.7655172 36.4482759,38.1862069 38.5482759,38.1137931 C40.6482759,38.0413793 39.9,36.1586207 39.6827586,35.337931 C39.4655172,34.4931034 37.4137931,30.9206897 35.7724138,28.6758621 C34.1310345,26.4310345 33.3344828,25.1758621 32.6586207,23.9206897 C32.4413793,23.5103448 31.9586207,22.6172414 31.6206897,21.9172414 C31.5482759,21.7482759 31.4758621,21.6034483 31.4034483,21.4827586 L31.1137931,21.1206897 C29.8344828,22.3758621 29.3758621,25.6586207 29.3034483,26.3827586 C29.2310345,26.8896552 29.5689655,27.3724138 29.8103448,27.7103448 C29.9310345,27.8551724 30.0275862,27.9758621 30.0758621,28.0482759 C30.2448276,28.3137931 34.2275862,34.3965517 34.2275862,34.3965517 C34.8310345,35.1448276 34.3,35.1448276 33.6,35.6275862 L24.837931,40.0206897 Z" fill="#F6E5F3" fill-rule="nonzero"></path>
                                    </g>
                                    <path d="M21.8448276,2.43793103 C21.8448276,2.43793103 22.6655172,3.8137931 25.0068966,3.08965517 C27.0344828,2.46206897 27.6137931,12.6 25.1275862,15.7137931 C23.1,18.2724138 26.7931034,24.5965517 28.0241379,24.5241379 C29.2551724,24.4517241 29.737931,17.5 28.8931034,15.8586207 C27.9034483,13.9517241 30.7275862,10.3068966 30.2206897,7.19310345 C29.737931,4.05517241 27.5413793,-3.71724138 21.8448276,2.43793103 Z" fill="#161115" fill-rule="nonzero"></path>
                                </g>
                            </g>
                            <g id="Group" transform="translate(61.793103, 35.724138)">
                                <g transform="translate(0.000000, 33.310345)" fill-rule="nonzero">
                                    <path d="M81.8275862,1.0137931 L0,1.0137931 L0,1.0137931 C0,0.482758621 0.434482759,0.0482758621 0.965517241,0.0482758621 L80.862069,0.0482758621 C81.3931034,0.0482758621 81.8275862,0.482758621 81.8275862,1.0137931 L81.8275862,1.0137931 Z" id="Path" fill="url(#linearGradient-15)"></path>
                                    <rect id="Rectangle" fill="url(#linearGradient-16)" x="0" y="1.0137931" width="81.8275862" height="2.89655172"></rect>
                                </g>
                                <g transform="translate(41.275862, 25.827586)">
                                    <path d="M2.34137931,5.16551724 C1.11034483,5.11724138 0.144827586,4.05517241 0.193103448,2.82413793 L0.193103448,2.82413793 C0.217241379,2.22068966 0.482758621,1.66551724 0.917241379,1.25517241 C1.35172414,0.844827586 1.93103448,0.651724138 2.53448276,0.675862069 C3.76551724,0.724137931 4.73103448,1.7862069 4.68275862,3.01724138 C4.65862069,3.62068966 4.39310345,4.17586207 3.95862069,4.5862069 C3.54827586,4.97241379 3.01724138,5.16551724 2.43793103,5.16551724 C2.4137931,5.16551724 2.38965517,5.16551724 2.34137931,5.16551724 Z M1.49655172,1.90689655 C1.23103448,2.14827586 1.06206897,2.4862069 1.06206897,2.87241379 L1.06206897,2.87241379 C1.03793103,3.64482759 1.61724138,4.27241379 2.38965517,4.32068966 C2.75172414,4.34482759 3.1137931,4.2 3.37931034,3.95862069 C3.64482759,3.71724138 3.8137931,3.37931034 3.8137931,2.99310345 C3.83793103,2.22068966 3.25862069,1.59310345 2.4862069,1.54482759 C2.46206897,1.54482759 2.43793103,1.54482759 2.4137931,1.54482759 C2.1,1.54482759 1.76206897,1.66551724 1.49655172,1.90689655 Z" id="Shape" fill="url(#linearGradient-17)"></path>
                                    <path d="M7.21724138,7.53103448 L5.81724138,7.53103448 C4.34482759,7.53103448 3.13793103,6.32413793 3.13793103,4.85172414 L3.13793103,0.0482758621 L9.89655172,0.0482758621 L9.89655172,4.85172414 C9.89655172,6.32413793 8.7137931,7.53103448 7.21724138,7.53103448 Z" id="Path" fill="url(#linearGradient-18)"></path>
                                </g>
                                <g transform="translate(12.551724, 26.310345)" fill-rule="nonzero">
                                    <g>
                                        <path d="M21.5793103,0.0482758621 L1.13448276,0.0482758621 C0.506896552,0.0482758621 0.024137931,0.555172414 0.024137931,1.15862069 L0.024137931,3.01724138 C0.024137931,3.64482759 0.531034483,4.12758621 1.13448276,4.12758621 L21.5793103,4.12758621 C22.2068966,4.12758621 22.6896552,3.62068966 22.6896552,3.01724138 L22.6896552,1.15862069 C22.6896552,0.531034483 22.2068966,0.0482758621 21.5793103,0.0482758621 Z" id="Path" fill="url(#linearGradient-19)"></path>
                                        <rect id="Rectangle" fill="#FFFFFF" x="8.44827586" y="1.49655172" width="9.65517241" height="1.20689655"></rect>
                                    </g>
                                    <path d="M23.4137931,4.15172414 L2.19655172,4.15172414 C1.7862069,4.15172414 1.47241379,4.48965517 1.47241379,4.87586207 L1.47241379,6.3 C1.47241379,6.71034483 1.81034483,7.02413793 2.19655172,7.02413793 L23.4137931,7.02413793 C23.8241379,7.02413793 24.137931,6.6862069 24.137931,6.3 L24.137931,4.87586207 C24.137931,4.46551724 23.8241379,4.15172414 23.4137931,4.15172414 Z" id="Path" fill="url(#linearGradient-20)"></path>
                                    <rect id="Rectangle" fill="#FFFFFF" x="10.6206897" y="5.35862069" width="9.65517241" height="1"></rect>
                                    <rect id="Rectangle" fill="#FFFFFF" x="4.34482759" y="4.15172414" width="1" height="2.89655172"></rect>
                                    <rect id="Rectangle" fill="#FFFFFF" x="3.62068966" y="0.0482758621" width="1" height="4.10344828"></rect>
                                    <rect id="Rectangle" fill="#FFFFFF" x="2.4137931" y="4.15172414" width="1" height="2.89655172"></rect>
                                    <rect id="Rectangle" fill="#FFFFFF" x="2.17241379" y="0.0482758621" width="1" height="4.10344828"></rect>
                                </g>
                                <g transform="translate(46.344828, 0.000000)" fill-rule="nonzero">
                                    <path d="M41.6862069,28.5310345 L1.7862069,28.5310345 C0.94137931,28.5310345 0.265517241,27.8551724 0.265517241,27.0103448 L0.265517241,1.56896552 C0.265517241,0.724137931 0.94137931,0.0482758621 1.7862069,0.0482758621 L41.6862069,0.0482758621 C42.5310345,0.0482758621 43.2068966,0.724137931 43.2068966,1.56896552 L43.2068966,26.9862069 C43.2068966,27.8310345 42.5310345,28.5310345 41.6862069,28.5310345 Z" id="Path" fill="#F3F5FB"></path>
                                    <path d="M41.6862069,28.5310345 L1.7862069,28.5310345 C0.94137931,28.5310345 0.265517241,27.8551724 0.265517241,27.0103448 L0.265517241,1.56896552 C0.265517241,0.724137931 0.94137931,0.0482758621 1.7862069,0.0482758621 L41.6862069,0.0482758621 C42.5310345,0.0482758621 43.2068966,0.724137931 43.2068966,1.56896552 L43.2068966,26.9862069 C43.2068966,27.8310345 42.5310345,28.5310345 41.6862069,28.5310345 Z" id="Path" fill="url(#linearGradient-21)"></path>
                                    <circle id="Oval" fill="#FFFFFF" cx="35.1206897" cy="25.7551724" r="1"></circle>
                                    <circle id="Oval" fill="#FFFFFF" cx="31.3793103" cy="25.6344828" r="1"></circle>
                                    <circle id="Oval" fill="#FFFFFF" cx="37.7758621" cy="25.7551724" r="1"></circle>
                                    <circle id="Oval" fill="#FFFFFF" cx="40.4310345" cy="25.7551724" r="1"></circle>
                                    <path d="M16.1241379,14.2896552 C16.1241379,14.2896552 22.6655172,30.0758621 21.7,31.6206897 C20.7344828,33.1655172 19.962069,33.3586207 19.962069,33.3586207 L28.2413793,33.3586207 C28.2413793,33.3586207 30.3655172,32.3931034 29.4,29.8827586 C28.4344828,27.3724138 25.1517241,16.3896552 24.2103448,14.2896552 L16.1241379,14.2896552 L16.1241379,14.2896552 Z" id="Path" fill="url(#linearGradient-22)"></path>
                                    <path d="M22.3034483,31.6206897 C23.2689655,30.0758621 16.7275862,14.2896552 16.7275862,14.2896552 L16.1482759,14.2896552 C16.1482759,14.2896552 22.6896552,30.0758621 21.7241379,31.6206897 C20.7586207,33.1655172 19.9862069,33.3586207 19.9862069,33.3586207 L20.5655172,33.3586207 C20.5655172,33.3586207 21.337931,33.1655172 22.3034483,31.6206897 Z" id="Path" fill="#FFFFFF"></path>
                                    <path d="M0.482758621,27.0586207 L0.482758621,1.56896552 C0.531034483,0.724137931 1.20689655,0.024137931 2.05172414,0.024137931 L1.68965517,0.024137931 C0.844827586,0.024137931 0.144827586,0.7 0.024137931,1.56896552 L0.024137931,27.0586207 C0.168965517,27.9034483 0.844827586,28.6034483 1.68965517,28.5068966 L2.07586207,28.5068966 C1.20689655,28.6034483 0.531034483,27.9034483 0.482758621,27.0586207 Z" id="Path" fill="#21201F"></path>
                                </g>
                                <rect id="Rectangle" fill="url(#linearGradient-23)" fill-rule="nonzero" x="12.0689655" y="37.2206897" width="2.89655172" height="47.0689655"></rect>
                                <polygon id="Path" fill="url(#linearGradient-23)" fill-rule="nonzero" points="66.6206897 84.2896552 69.5172414 84.2896552 69.5172414 37.2206897 66.6206897 37.2206897"></polygon>
                            </g>
                            <g id="Group" transform="translate(142.413793, 26.068966)">
                                <ellipse id="Oval" fill="url(#linearGradient-24)" opacity="0.189476376" cx="16.3172414" cy="105.024138" rx="12.3586207" ry="1.93103448"></ellipse>
                                <g id="Path">
                                    <line x1="20.8068966" y1="94.9827586" x2="18.7551724" y2="76.0827586" stroke="url(#linearGradient-25)" stroke-width="0.5"></line>
                                    <path d="M18.8275862,76.6862069 C18.8275862,76.6862069 16.8241379,75.1896552 16.1241379,73.1862069 C15.4482759,71.1827586 9.63103448,64.5206897 9.55862069,62.7103448 C9.51034483,60.9241379 14,66.3551724 16.1241379,67.4172414 C18.2482759,68.4793103 19.5275862,75.7931034 18.8517241,76.9517241" fill="url(#linearGradient-26)"></path>
                                    <line x1="26.237931" y1="95.537931" x2="25.6344828" y2="77.7965517" stroke="url(#linearGradient-27)" stroke-width="0.5"></line>
                                    <path d="M25.6586207,78.4 C25.6586207,78.4 27.4206897,76.637931 27.8068966,74.537931 C28.1931034,72.437931 32.9482759,65.0034483 32.7310345,63.2172414 C32.5137931,61.4310345 28.8689655,67.4896552 26.937931,68.8413793 C25.0068966,70.1931034 24.837931,77.6275862 25.6586207,78.6655172" fill="url(#linearGradient-28)"></path>
                                    <polygon fill="url(#linearGradient-29)" fill-rule="nonzero" points="29.9793103 94.2344828 17.0413793 94.2344828 18.5137931 105.168966 28.5068966 105.168966"></polygon>
                                    <path d="M23.9448276,94.5724138 C23.8965517,87.6206897 23.8482759,80.6206897 22.7137931,73.7655172 C22.4724138,72.3655172 22.2068966,70.9896552 22.037931,69.5896552 C21.7241379,67.2241379 21.7,64.8103448 21.6517241,62.4206897 C21.5551724,56.2413793 21.4586207,50.062069 21.362069,43.9068966 C21.3137931,41.3482759 21.3137931,38.7172414 22.3758621,36.4 C23.8724138,33.1655172 27.3,31.1137931 28.6034483,27.7827586 C28.9896552,26.7931034 29.1827586,25.7310345 29.3517241,24.6931034 C29.6655172,22.7862069 30.0034483,20.8793103 30.3172414,18.9482759" stroke="url(#linearGradient-30)" stroke-width="0.5"></path>
                                    <path d="M21.2655172,43.6413793 C21.1931034,41.4206897 20.637931,39.2 19.6482759,37.2206897 C19.2137931,36.3275862 18.6586207,35.4827586 18.4896552,34.4931034 C18.3206897,33.5034483 18.562069,32.4413793 18.2965517,31.4517241 C17.9586207,30.1724138 16.8724138,29.2068966 16.3413793,28 C15.9310345,27.0586207 15.8586207,25.9965517 15.8103448,24.9586207 C15.737931,23.3896552 15.6413793,21.8206897 15.5689655,20.2517241" stroke="url(#linearGradient-31)" stroke-width="0.5"></path>
                                    <path d="M21.6034483,51.2448276 C21.0965517,49.0724138 20.0827586,47.0206897 18.6827586,45.2827586 C18.0551724,44.5103448 17.3551724,43.7862069 16.9931034,42.8689655 C16.6310345,41.9275862 16.6310345,40.8413793 16.1965517,39.9482759 C15.6172414,38.7655172 14.337931,38.0655172 13.5655172,36.9793103 C12.962069,36.1344828 12.6965517,35.1206897 12.4310345,34.1068966 C12.0206897,32.5862069 11.6344828,31.0655172 11.2241379,29.5448276" stroke="url(#linearGradient-32)" stroke-width="0.5"></path>
                                    <path d="M29.8103448,22.9068966 C29.8103448,22.9068966 31.4758621,21.0482759 31.7655172,18.9482759 C32.0551724,16.8482759 36.4,9.14827586 36.1103448,7.3862069 C35.7965517,5.62413793 32.4896552,11.8517241 30.6310345,13.3 C28.7724138,14.7482759 28.9896552,22.1827586 29.8586207,23.1965517" fill="url(#linearGradient-33)"></path>
                                    <path d="M15.5931034,21.2896552 C15.5931034,21.2896552 13.5896552,19.7931034 12.8896552,17.7896552 C12.2137931,15.7862069 6.39655172,9.12413793 6.32413793,7.3137931 C6.27586207,5.52758621 10.7655172,10.9586207 12.8896552,12.0206897 C15.0137931,13.0827586 16.2931034,20.3965517 15.6172414,21.5551724" fill="url(#linearGradient-34)"></path>
                                    <path d="M19.3103448,36.737931 C19.3827586,34.5172414 19.937931,32.2965517 20.9275862,30.3172414 C21.362069,29.4241379 21.9172414,28.5793103 22.0862069,27.5896552 C22.2551724,26.6 22.0137931,25.537931 22.2793103,24.5482759 C22.6172414,23.2689655 23.7034483,22.3034483 24.2344828,21.0965517 C24.6448276,20.1551724 24.7172414,19.0931034 24.7655172,18.0551724 C24.837931,16.4862069 24.9344828,14.9172414 25.0068966,13.3482759" stroke="url(#linearGradient-35)" stroke-width="0.5"></path>
                                    <path d="M25.0068966,14.3862069 C25.0068966,14.3862069 27.0103448,12.8896552 27.7103448,10.8862069 C28.3862069,8.88275862 34.2034483,2.22068966 34.2758621,0.410344828 C34.3241379,-1.37586207 29.8344828,4.05517241 27.7103448,5.11724138 C25.5862069,6.17931034 24.3068966,13.4931034 24.9827586,14.6517241" fill="url(#linearGradient-36)" fill-rule="nonzero"></path>
                                    <path d="M12.0931034,32.6586207 C12.0931034,32.6586207 9.82413793,31.6206897 8.73793103,29.7862069 C7.65172414,27.9517241 0.603448276,22.6413793 0.168965517,20.8793103 C-0.24137931,19.1413793 5.26206897,23.5344828 7.55517241,24.137931 C9.84827586,24.7413793 12.6,31.6448276 12.1896552,32.9" fill="url(#linearGradient-37)" fill-rule="nonzero"></path>
                                </g>
                            </g>
                        </g>
                    </g>
                </g>
            </g>
        </g>
    </g>
</svg>