<?xml version="1.0" encoding="UTF-8"?>
<svg width="306px" height="238px" viewBox="0 0 306 238" version="1.1" xmlns="http://www.w3.org/2000/svg" xmlns:xlink="http://www.w3.org/1999/xlink">
    <title>5763D513-FB1F-4751-B53D-632E32A6F175</title>
    <defs>
        <linearGradient x1="124.31875%" y1="32.5502653%" x2="-15.7072917%" y2="71.1247615%" id="linearGradient-1">
            <stop stop-color="#656565" offset="0%"></stop>
            <stop stop-color="#E3E3DD" offset="100%"></stop>
        </linearGradient>
        <linearGradient x1="-0.0143366337%" y1="49.9999903%" x2="100.001624%" y2="49.9999903%" id="linearGradient-2">
            <stop stop-color="#E1EEF9" offset="0%"></stop>
            <stop stop-color="#E1EEF9" stop-opacity="0.8523" offset="100%"></stop>
        </linearGradient>
        <linearGradient x1="98.457769%" y1="26.6660767%" x2="-0.264096592%" y2="69.3081449%" id="linearGradient-3">
            <stop stop-color="#BB0E29" offset="0%"></stop>
            <stop stop-color="#FFABB8" offset="100%"></stop>
        </linearGradient>
        <linearGradient x1="98.457769%" y1="31.0743304%" x2="-0.264096592%" y2="65.6604428%" id="linearGradient-4">
            <stop stop-color="#BB0E29" offset="0%"></stop>
            <stop stop-color="#FFABB8" offset="100%"></stop>
        </linearGradient>
        <linearGradient x1="124.31875%" y1="32.3301847%" x2="-15.7072917%" y2="71.3911925%" id="linearGradient-5">
            <stop stop-color="#656565" offset="0%"></stop>
            <stop stop-color="#E3E3DD" offset="100%"></stop>
        </linearGradient>
        <linearGradient x1="0.00299801868%" y1="49.8834901%" x2="99.9905874%" y2="49.8834901%" id="linearGradient-6">
            <stop stop-color="#3E0A99" offset="1.813472%"></stop>
            <stop stop-color="#773CBD" offset="100%"></stop>
        </linearGradient>
        <linearGradient x1="49.9387903%" y1="9.10323308%" x2="49.9387903%" y2="87.3233083%" id="linearGradient-7">
            <stop stop-color="#3E0A99" offset="1.813472%"></stop>
            <stop stop-color="#773CBD" offset="100%"></stop>
        </linearGradient>
        <linearGradient x1="37.7211797%" y1="0%" x2="62.2788203%" y2="100%" id="linearGradient-8">
            <stop stop-color="#45E994" offset="0%"></stop>
            <stop stop-color="#23BCBA" offset="100%"></stop>
        </linearGradient>
        <linearGradient x1="49.9972334%" y1="-16.9290257%" x2="49.9972334%" y2="80.0097752%" id="linearGradient-9">
            <stop stop-color="#D5D5D9" offset="0%"></stop>
            <stop stop-color="#30313C" offset="100%"></stop>
        </linearGradient>
        <linearGradient x1="21.7117604%" y1="64.7055182%" x2="93.1922503%" y2="44.8809081%" id="linearGradient-10">
            <stop stop-color="#3E0A99" offset="1.813472%"></stop>
            <stop stop-color="#773CBD" offset="100%"></stop>
        </linearGradient>
        <linearGradient x1="49.9387903%" y1="9.10323308%" x2="49.9387903%" y2="87.3233083%" id="linearGradient-11">
            <stop stop-color="#3E0A99" offset="1.813472%"></stop>
            <stop stop-color="#773CBD" offset="100%"></stop>
        </linearGradient>
        <linearGradient x1="49.9387903%" y1="9.10323308%" x2="49.9387903%" y2="87.3233083%" id="linearGradient-12">
            <stop stop-color="#3E0A99" offset="1.813472%"></stop>
            <stop stop-color="#773CBD" offset="100%"></stop>
        </linearGradient>
        <linearGradient x1="44.2251409%" y1="0%" x2="55.7748591%" y2="100%" id="linearGradient-13">
            <stop stop-color="#23BCBA" offset="0%"></stop>
            <stop stop-color="#45E994" offset="100%"></stop>
        </linearGradient>
        <linearGradient x1="26.4070818%" y1="0%" x2="73.5929182%" y2="100%" id="linearGradient-14">
            <stop stop-color="#23BCBA" offset="0%"></stop>
            <stop stop-color="#45E994" offset="100%"></stop>
        </linearGradient>
        <linearGradient x1="0%" y1="15.3435043%" x2="100%" y2="84.6564957%" id="linearGradient-15">
            <stop stop-color="#23BCBA" offset="0%"></stop>
            <stop stop-color="#45E994" offset="100%"></stop>
        </linearGradient>
        <linearGradient x1="0%" y1="29.1735828%" x2="100%" y2="70.8264172%" id="linearGradient-16">
            <stop stop-color="#45E994" offset="0%"></stop>
            <stop stop-color="#23BCBA" offset="100%"></stop>
        </linearGradient>
        <linearGradient x1="0%" y1="39.7244444%" x2="100%" y2="60.2755556%" id="linearGradient-17">
            <stop stop-color="#45E994" offset="0%"></stop>
            <stop stop-color="#23BCBA" offset="100%"></stop>
        </linearGradient>
        <linearGradient x1="124.31875%" y1="28.0849771%" x2="-15.7072917%" y2="76.5304682%" id="linearGradient-18">
            <stop stop-color="#656565" offset="0%"></stop>
            <stop stop-color="#E3E3DD" offset="100%"></stop>
        </linearGradient>
        <linearGradient x1="0%" y1="50%" x2="100%" y2="50%" id="linearGradient-19">
            <stop stop-color="#9B3CB7" offset="0%"></stop>
            <stop stop-color="#FF396F" offset="100%"></stop>
        </linearGradient>
        <linearGradient x1="0%" y1="50%" x2="100%" y2="50%" id="linearGradient-20">
            <stop stop-color="#9B3CB7" offset="0%"></stop>
            <stop stop-color="#FF396F" offset="100%"></stop>
        </linearGradient>
        <linearGradient x1="0%" y1="50%" x2="100%" y2="50%" id="linearGradient-21">
            <stop stop-color="#9B3CB7" offset="0%"></stop>
            <stop stop-color="#FF396F" offset="100%"></stop>
        </linearGradient>
        <linearGradient x1="0%" y1="50%" x2="100%" y2="50%" id="linearGradient-22">
            <stop stop-color="#FF396F" offset="0%"></stop>
            <stop stop-color="#9B3CB7" offset="100%"></stop>
        </linearGradient>
        <linearGradient x1="0%" y1="50%" x2="100%" y2="50%" id="linearGradient-23">
            <stop stop-color="#FF396F" offset="0%"></stop>
            <stop stop-color="#9B3CB7" offset="100%"></stop>
        </linearGradient>
        <linearGradient x1="0%" y1="50%" x2="100%" y2="50%" id="linearGradient-24">
            <stop stop-color="#FF396F" offset="0%"></stop>
            <stop stop-color="#9B3CB7" offset="100%"></stop>
        </linearGradient>
        <linearGradient x1="0%" y1="50%" x2="100%" y2="50%" id="linearGradient-25">
            <stop stop-color="#9B3CB7" offset="0%"></stop>
            <stop stop-color="#FF396F" offset="100%"></stop>
        </linearGradient>
        <linearGradient x1="0%" y1="50%" x2="100%" y2="50%" id="linearGradient-26">
            <stop stop-color="#9B3CB7" offset="0%"></stop>
            <stop stop-color="#FF396F" offset="100%"></stop>
        </linearGradient>
        <linearGradient x1="0%" y1="50%" x2="100%" y2="50%" id="linearGradient-27">
            <stop stop-color="#9B3CB7" offset="0%"></stop>
            <stop stop-color="#FF396F" offset="100%"></stop>
        </linearGradient>
        <linearGradient x1="0%" y1="50%" x2="100%" y2="50%" id="linearGradient-28">
            <stop stop-color="#9B3CB7" offset="0%"></stop>
            <stop stop-color="#FF396F" offset="100%"></stop>
        </linearGradient>
        <linearGradient x1="0%" y1="50%" x2="100%" y2="50%" id="linearGradient-29">
            <stop stop-color="#9B3CB7" offset="0%"></stop>
            <stop stop-color="#FF396F" offset="100%"></stop>
        </linearGradient>
        <linearGradient x1="124.31875%" y1="32.242908%" x2="-15.7072917%" y2="71.4968503%" id="linearGradient-30">
            <stop stop-color="#656565" offset="0%"></stop>
            <stop stop-color="#E3E3DD" offset="100%"></stop>
        </linearGradient>
    </defs>
    <g id="Usability-Testing" stroke="none" stroke-width="1" fill="none" fill-rule="evenodd">
        <g id="Step-4---Quiz-End" transform="translate(-567.000000, -178.000000)">
            <g id="Center" transform="translate(320.000000, 178.000000)">
                <g id="Illustration/Success" transform="translate(247.000000, 0.000000)">
                    <g id="spot-hero-9-01" transform="translate(0.000000, 0.000000)">
                        <polygon id="Path" fill="url(#linearGradient-1)" opacity="0.189476376" points="7.11918367 171.734694 0 166.48898 115.697143 100.001633 122.816327 104.872653"></polygon>
                        <g id="Group" transform="translate(4.995918, 0.000000)">
                            <path d="M105.330612,2.41469388 L105.330612,92.7991837 C105.330612,94.6310204 104.206531,96.7959184 102.832653,97.5869388 L2.70612245,155.414694 C1.3322449,156.205714 0.208163265,155.373061 0.208163265,153.541224 L0.208163265,63.115102 C0.208163265,61.2832653 1.3322449,59.1183673 2.70612245,58.3273469 L102.832653,0.499591837 C104.206531,-0.291428571 105.330612,0.54122449 105.330612,2.41469388 Z" id="Path" fill="url(#linearGradient-2)" fill-rule="nonzero"></path>
                            <path d="M105.330612,2.41469388 L105.330612,10.3665306 L0.208163265,71.0253061 L0.208163265,63.0734694 C0.208163265,61.2416327 1.3322449,59.0767347 2.70612245,58.2857143 L102.832653,0.499591837 C104.206531,-0.291428571 105.330612,0.54122449 105.330612,2.41469388 Z" id="Path" fill="url(#linearGradient-3)" fill-rule="nonzero"></path>
                            <g transform="translate(4.995918, 22.481633)">
                                <path d="M94.0897959,70.6089796 L1.45714286,124.065306 C0.749387755,124.481633 0.208163265,124.023673 0.208163265,123.107755 L0.208163265,56.0791837 C0.208163265,55.1632653 0.749387755,54.0808163 1.45714286,53.7061224 L94.0897959,0.208163265 C94.797551,-0.208163265 95.3387755,0.249795918 95.3387755,1.16571429 L95.3387755,68.1942857 C95.3387755,69.1518367 94.7559184,70.1926531 94.0897959,70.6089796 Z" id="Path" fill="#FFFFFF" fill-rule="nonzero"></path>
                                <g transform="translate(6.244898, 78.269388)">
                                    <line x1="5.20408163" y1="29.8506122" x2="35.0130612" y2="12.6563265" id="Path" stroke="#DFE6FD" stroke-width="1.3886" stroke-linecap="round"></line>
                                    <line x1="5.07918367" y1="0.374693878" x2="5.07918367" y2="29.7673469" id="Path" stroke="#DFE6FD" stroke-width="1.3886" stroke-linecap="round"></line>
                                    <polygon id="Path" fill="#DFE6FD" fill-rule="nonzero" points="8.70122449 24.3134694 7.4522449 25.0628571 7.4522449 5.03755102 8.70122449 4.28816327"></polygon>
                                    <polygon id="Path" fill="#DFE6FD" fill-rule="nonzero" points="12.4481633 22.1485714 11.1991837 22.8979592 11.1991837 8.8677551 12.4481633 8.16"></polygon>
                                    <polygon id="Path" fill="#DFE6FD" fill-rule="nonzero" points="16.2367347 19.9836735 14.9877551 20.7330612 14.9877551 3.03918367 16.2367347 2.28979592"></polygon>
                                    <polygon id="Path" fill="#DFE6FD" fill-rule="nonzero" points="19.9836735 17.8187755 18.7346939 18.5681633 18.7346939 7.86857143 19.9836735 7.16081633"></polygon>
                                    <polygon id="Path" fill="#DFE6FD" fill-rule="nonzero" points="23.7306122 15.6538776 22.4816327 16.4032653 22.4816327 9.03428571 23.7306122 8.32653061"></polygon>
                                    <text id="Mon" fill="#DFE6FD" font-family="Helvetica" font-size="6.4137" font-weight="normal">
                                        <tspan x="6.3648" y="36.3890057">M</tspan>
                                        <tspan x="6.3648" y="43.3890057">o</tspan>
                                        <tspan x="6.3648" y="50.3890057">n</tspan>
                                    </text>
                                    <text id="Tue" fill="#DFE6FD" font-family="Helvetica" font-size="6.4137" font-weight="normal">
                                        <tspan x="12.4744335" y="32.8615959">T</tspan>
                                        <tspan x="12.4744335" y="39.8615959">u</tspan>
                                        <tspan x="12.4744335" y="46.8615959">e</tspan>
                                    </text>
                                    <text id="Wed" fill="#DFE6FD" font-family="Helvetica" font-size="6.4137" font-weight="normal">
                                        <tspan x="17.9559551" y="29.6968482">W</tspan>
                                        <tspan x="17.9559551" y="36.6968482">e</tspan>
                                        <tspan x="17.9559551" y="43.6968482">d</tspan>
                                    </text>
                                    <text id="Thu" fill="#DFE6FD" font-family="Helvetica" font-size="6.4137" font-weight="normal">
                                        <tspan x="24.0585527" y="26.17356">T</tspan>
                                        <tspan x="24.0585527" y="33.17356">h</tspan>
                                        <tspan x="24.0585527" y="40.17356">u</tspan>
                                    </text>
                                    <text id="Fri" fill="#DFE6FD" font-family="Helvetica" font-size="6.4137" font-weight="normal">
                                        <tspan x="29.5316229" y="23.0136833">F</tspan>
                                        <tspan x="29.5316229" y="30.0136833">r</tspan>
                                        <tspan x="29.5316229" y="37.0136833">i</tspan>
                                    </text>
                                    <text id="10-k" fill="#DFE6FD" font-family="Helvetica" font-size="6.4137" font-weight="normal">
                                        <tspan x="0.31149551" y="32.5501837">1</tspan>
                                        <tspan x="0.31149551" y="39.5501837">0 </tspan>
                                        <tspan x="0.31149551" y="46.5501837">k</tspan>
                                    </text>
                                    <text id="20-k" fill="#DFE6FD" font-family="Helvetica" font-size="6.4137" font-weight="normal">
                                        <tspan x="0.311828571" y="27.1942261">2</tspan>
                                        <tspan x="0.311828571" y="34.1942261">0 </tspan>
                                        <tspan x="0.311828571" y="41.1942261">k</tspan>
                                    </text>
                                    <text id="30-k" fill="#DFE6FD" font-family="Helvetica" font-size="6.4137" font-weight="normal">
                                        <tspan x="0.31149551" y="21.8383102">3</tspan>
                                        <tspan x="0.31149551" y="28.8383102">0 </tspan>
                                        <tspan x="0.31149551" y="35.8383102">k</tspan>
                                    </text>
                                    <text id="40-k" fill="#DFE6FD" font-family="Helvetica" font-size="6.4137" font-weight="normal">
                                        <tspan x="0.311828571" y="16.4819363">4</tspan>
                                        <tspan x="0.311828571" y="23.4819363">0 </tspan>
                                        <tspan x="0.311828571" y="30.4819363">k</tspan>
                                    </text>
                                    <text id="50-k" fill="#DFE6FD" font-family="Helvetica" font-size="6.4137" font-weight="normal">
                                        <tspan x="0.311828571" y="11.1258122">5</tspan>
                                        <tspan x="0.311828571" y="18.1258122">0 </tspan>
                                        <tspan x="0.311828571" y="25.1258122">k</tspan>
                                    </text>
                                </g>
                                <g transform="translate(34.138776, 40.800000)">
                                    <ellipse id="Oval" fill="#DFE6FD" fill-rule="nonzero" transform="translate(1.543289, 44.140463) rotate(-66.947353) translate(-1.543289, -44.140463) " cx="1.54328914" cy="44.1404625" rx="1.54049951" ry="1"></ellipse>
                                    <path d="M36.72,0.124897959 C36.7616327,0.582857143 37.4693878,6.99428571 34.2220408,12.5730612 C29.9338776,19.9420408 23.8971429,17.0693878 15.4457143,24.0636735 C11.8236735,27.0612245 6.78612245,32.6816327 1.4155102,44.1722449" id="Path" stroke="#DFE6FD" stroke-width="1.3886" stroke-linecap="round" stroke-linejoin="round"></path>
                                </g>
                            </g>
                            <g transform="translate(3.330612, 54.955102)" fill="#FFFFFF" fill-rule="nonzero" id="Oval">
                                <ellipse transform="translate(1.893012, 8.188277) rotate(-66.947353) translate(-1.893012, -8.188277) " cx="1.89301176" cy="8.1882769" rx="1.9152156" ry="1.08251317"></ellipse>
                                <ellipse transform="translate(6.873734, 5.297888) rotate(-66.947353) translate(-6.873734, -5.297888) " cx="6.8737342" cy="5.29788833" rx="1.9152156" ry="1.08251317"></ellipse>
                                <ellipse transform="translate(12.122696, 2.271153) rotate(-66.947353) translate(-12.122696, -2.271153) " cx="12.1226958" cy="2.27115282" rx="1.9152156" ry="1.08251317"></ellipse>
                            </g>
                            <g transform="translate(13.738776, 34.555102)">
                                <g transform="translate(0.000000, 5.828571)" id="Path" stroke="#DFE6FD" stroke-linecap="round" stroke-width="1.3886">
                                    <line x1="69.3183673" y1="0.333061224" x2="0.333061224" y2="40.1755102"></line>
                                    <line x1="69.3183673" y1="4.62122449" x2="0.333061224" y2="44.4636735"></line>
                                    <line x1="69.3183673" y1="8.95102041" x2="0.333061224" y2="48.7934694"></line>
                                    <line x1="69.3183673" y1="13.2391837" x2="0.333061224" y2="53.0816327"></line>
                                    <line x1="69.3183673" y1="17.5689796" x2="0.333061224" y2="57.4114286"></line>
                                </g>
                                <path d="M67.9861224,16.5281633 C67.9861224,16.5281633 65.9877551,22.1902041 64.7804082,21.1910204 C63.6146939,20.1918367 63.24,19.6089796 60.9918367,22.2318367 C58.7436735,24.8546939 57.2032653,14.6130612 56.2873469,14.404898 C55.3297959,14.1967347 54.4971429,14.8628571 53.5812245,18.4432653 C52.6653061,22.0236735 51.5828571,24.8963265 49.917551,23.9387755 C48.2522449,23.0228571 48.1273469,28.9346939 46.9616327,29.8089796 C45.7959184,30.6832653 45.0881633,31.0995918 44.0057143,32.4734694 C42.9232653,33.8473469 42.5902041,33.4726531 42.1322449,31.8489796 C41.6742857,30.2253061 40.4669388,19.9836735 39.4261224,20.2334694 C38.3436735,20.4832653 37.3028571,37.677551 35.5126531,37.0114286 C33.722449,36.3453061 33.6391837,35.4710204 32.9314286,37.7608163 C32.2236735,40.0506122 31.8489796,43.4644898 30.1004082,42.7983673 C28.3102041,42.1322449 24.1885714,41.5077551 23.3559184,40.0922449 C22.5232653,38.6767347 20.8579592,32.4734694 19.3591837,33.722449 C17.8187755,34.9714286 17.9436735,41.1330612 16.8612245,42.6734694 C15.7787755,44.2138776 15.1959184,45.5044898 14.8628571,47.7942857 C14.4881633,50.0840816 13.5722449,54.955102 12.364898,54.7053061 C11.1991837,54.4555102 10.5746939,52.3322449 9.78367347,49.7926531 C8.95102041,47.2530612 6.70285714,39.1346939 3.99673469,46.1706122 C1.29061224,53.2065306 1.49877551,53.6228571 1.49877551,53.6228571" id="Path" stroke="url(#linearGradient-4)" stroke-width="0.5" stroke-linecap="round"></path>
                                <g transform="translate(69.526531, 0.000000)">
                                    <polygon id="Path" points="0.249795918 7.4522449 7.32734694 3.3722449 7.32734694 0.915918367 0.249795918 4.99591837"></polygon>
                                    <text id="00000" fill="#DFE6FD" transform="translate(4.516393, 3.405218) scale(-1, 1) translate(-4.516393, -3.405218) " font-family="Helvetica" font-size="6.4137" font-weight="normal">
                                        <tspan x="1.70618939" y="6.32565061">0</tspan>
                                        <tspan x="1.70618939" y="13.3256506">0</tspan>
                                        <tspan x="1.70618939" y="20.3256506">0</tspan>
                                        <tspan x="1.70618939" y="27.3256506">0</tspan>
                                        <tspan x="1.70618939" y="34.3256506">0</tspan>
                                    </text>
                                    <g transform="translate(0.000000, 4.579592)">
                                        <polygon id="Path" points="0.124897959 7.24408163 7.16081633 3.20571429 7.16081633 0.749387755 0.124897959 4.82938776"></polygon>
                                        <text id="00000" fill="#DFE6FD" transform="translate(4.369180, 3.216580) scale(-1, 1) translate(-4.369180, -3.216580) " font-family="Helvetica" font-size="6.4137" font-weight="normal">
                                            <tspan x="1.55897633" y="6.13701306">0</tspan>
                                            <tspan x="1.55897633" y="13.1370131">0</tspan>
                                            <tspan x="1.55897633" y="20.1370131">0</tspan>
                                            <tspan x="1.55897633" y="27.1370131">0</tspan>
                                            <tspan x="1.55897633" y="34.1370131">0</tspan>
                                        </text>
                                    </g>
                                    <g transform="translate(0.000000, 8.742857)">
                                        <polygon id="Path" points="0.124897959 7.41061224 7.16081633 3.33061224 7.16081633 0.874285714 0.124897959 4.95428571"></polygon>
                                        <text id="00000" fill="#DFE6FD" transform="translate(4.369180, 3.359713) scale(-1, 1) translate(-4.369180, -3.359713) " font-family="Helvetica" font-size="6.4137" font-weight="normal">
                                            <tspan x="1.55897633" y="6.28014612">0</tspan>
                                            <tspan x="1.55897633" y="13.2801461">0</tspan>
                                            <tspan x="1.55897633" y="20.2801461">0</tspan>
                                            <tspan x="1.55897633" y="27.2801461">0</tspan>
                                            <tspan x="1.55897633" y="34.2801461">0</tspan>
                                        </text>
                                    </g>
                                    <g transform="translate(0.000000, 13.322449)">
                                        <polygon id="Path" points="0.124897959 7.11918367 7.16081633 3.08081633 7.16081633 0.624489796 0.124897959 4.7044898"></polygon>
                                        <text id="00000" fill="#DFE6FD" transform="translate(4.369180, 3.086478) scale(-1, 1) translate(-4.369180, -3.086478) " font-family="Helvetica" font-size="6.4137" font-weight="normal">
                                            <tspan x="1.55897633" y="6.00691102">0</tspan>
                                            <tspan x="1.55897633" y="13.006911">0</tspan>
                                            <tspan x="1.55897633" y="20.006911">0</tspan>
                                            <tspan x="1.55897633" y="27.006911">0</tspan>
                                            <tspan x="1.55897633" y="34.006911">0</tspan>
                                        </text>
                                    </g>
                                    <g transform="translate(0.000000, 17.485714)">
                                        <polygon id="Path" points="0.124897959 7.28571429 7.16081633 3.20571429 7.16081633 0.749387755 0.124897959 4.82938776"></polygon>
                                        <text id="00000" fill="#DFE6FD" transform="translate(4.369180, 3.229195) scale(-1, 1) translate(-4.369180, -3.229195) " font-family="Helvetica" font-size="6.4137" font-weight="normal">
                                            <tspan x="1.55897633" y="6.14962776">0</tspan>
                                            <tspan x="1.55897633" y="13.1496278">0</tspan>
                                            <tspan x="1.55897633" y="20.1496278">0</tspan>
                                            <tspan x="1.55897633" y="27.1496278">0</tspan>
                                            <tspan x="1.55897633" y="34.1496278">0</tspan>
                                        </text>
                                    </g>
                                </g>
                            </g>
                        </g>
                        <g id="Group" transform="translate(121.151020, 30.808163)">
                            <ellipse id="Oval" fill="url(#linearGradient-5)" opacity="0.189476376" cx="54.3306122" cy="124.065306" rx="54.3306122" ry="31.9322449"></ellipse>
                            <g transform="translate(32.473469, 0.000000)" id="Path">
                                <path d="M38.1771429,115.780408 C38.1771429,115.780408 40.2171429,118.028571 40.0089796,119.444082 C39.8008163,120.859592 39.1346939,120.693061 38.3853061,119.985306 C37.6359184,119.277551 37.5942857,119.56898 37.5942857,119.56898 L37.5942857,117.945306 C37.5942857,117.945306 36.4285714,117.029388 33.9306122,117.445714 L34.1804082,116.488163 L38.1771429,115.780408 Z" fill="#FED2F5" fill-rule="nonzero"></path>
                                <path d="M33.9306122,117.737143 C33.5142857,120.235102 31.8073469,124.065306 28.9346939,126.521633 C26.0620408,128.977959 34.1804082,128.603265 35.3877551,128.103673 C36.6367347,127.562449 41.1746939,123.066122 41.2163265,122.483265 C41.2579592,121.942041 40.2171429,118.153469 39.842449,117.986939 C39.842449,117.986939 39.8008163,117.986939 39.8008163,117.986939 C39.5093878,118.070204 39.8840816,120.318367 39.3844898,120.484898 C39.3012245,120.526531 39.1763265,120.443265 38.9265306,120.276735 C38.4269388,119.943673 37.8857143,119.444082 37.5942857,119.11102 L37.5942857,119.11102 C37.6359184,118.986122 37.9273469,118.070204 37.4693878,117.570612 C37.3861224,117.445714 37.1363265,117.279184 36.0955102,117.237551 C35.5959184,117.237551 34.8465306,117.237551 33.9306122,117.445714 C33.9306122,117.404082 33.9722449,117.653878 33.9306122,117.737143 Z" fill="url(#linearGradient-6)" fill-rule="nonzero"></path>
                                <path d="M14.0718367,124.315102 C15.3208163,124.273469 15.237551,122.857959 15.237551,122.857959 L15.237551,118.777959 L11.3240816,118.611429 L11.3240816,122.108571 L11.3240816,124.564898 L14.0718367,124.315102 Z" fill="#FED2F5" fill-rule="nonzero"></path>
                                <path d="M38.7183673,115.65551 L33.3893878,116.987755 C33.3893878,116.987755 33.1395918,115.905306 32.8481633,114.24 C32.2653061,111.242449 31.3077551,106.496327 30.8497959,103.290612 C30.1004082,98.3363265 29.1012245,97.4620408 27.4359184,95.4220408 C25.7706122,93.3820408 23.3559184,84.4726531 23.0644898,83.0987755 C22.8146939,81.724898 20.9412245,76.8955102 20.524898,77.2702041 C19.3591837,78.3526531 17.2359184,85.0971429 16.9028571,91.924898 C16.5697959,98.4195918 17.6522449,100.251429 17.402449,106.954286 C17.277551,110.909388 16.7779592,114.281633 16.2367347,116.90449 C16.0702041,117.69551 15.9036735,118.444898 15.7371429,119.11102 L10.4497959,119.11102 C10.2832653,118.153469 10.1167347,117.195918 9.99183673,116.28 C9.11755102,110.576327 8.8677551,105.913469 8.82612245,102.582857 C8.70122449,96.1714286 9.32571429,95.8383673 9.11755102,88.0114286 C8.90938776,79.2269388 8.74285714,77.52 8.8677551,74.3559184 C8.95102041,71.8995918 9.11755102,69.7763265 9.28408163,67.6114286 C9.32571429,67.2783673 9.03428571,66.3208163 9.03428571,66.3208163 L32.4734694,63.7395918 C32.8897959,73.8563265 32.8481633,79.684898 32.6816327,83.2236735 C32.64,83.9314286 32.5983673,85.3053061 32.8065306,87.1787755 C33.4310204,92.2579592 35.9289796,95.6302041 36.4702041,96.962449 C38.1355102,101.167347 38.5518367,109.160816 38.6767347,113.240816 C38.7183673,114.697959 38.7183673,115.65551 38.7183673,115.65551 Z" fill="url(#linearGradient-7)" fill-rule="nonzero"></path>
                                <path d="M18.6514286,28.435102 C17.6522449,28.6432653 15.0710204,28.8514286 15.0710204,28.8514286 C14.8212245,28.6432653 16.6114286,23.522449 14.4465306,19.5257143 C14.4465306,19.5257143 20.6914286,21.482449 22.1485714,14.4465306 C22.1485714,14.4465306 22.315102,18.235102 22.7730612,19.0677551 L18.6514286,28.435102 Z" fill="#F2B5DE" fill-rule="nonzero"></path>
                                <path d="M12.0318367,15.6538776 C12.0318367,15.6538776 13.5306122,20.7330612 16.9861224,20.524898 C20.4416327,20.3167347 22.2734694,15.4873469 22.2318367,13.6138776 C22.1902041,11.6987755 20.7330612,7.5355102 19.9004082,6.7444898 C19.0261224,5.95346939 12.7395918,5.87020408 12.0318367,7.24408163 C11.3240816,8.57632653 11.5322449,14.8212245 12.0318367,15.6538776 Z" fill="#FED2F5" fill-rule="nonzero"></path>
                                <path d="M15.4873469,23.1477551 C15.4873469,23.1477551 15.5706122,24.1469388 15.5706122,24.8546939 C15.5706122,24.8546939 15.5706122,24.8963265 15.5706122,24.8963265 C15.5706122,25.8122449 15.5289796,26.9363265 15.362449,28.2685714 C15.3208163,28.6432653 17.4440816,28.7681633 17.5273469,27.9771429 C17.5689796,27.8106122 17.5689796,27.602449 17.5689796,27.3942857 C17.6106122,26.6865306 17.6106122,25.9787755 18.0269388,25.6040816 L18.4016327,25.1044898 L22.7730612,19.0677551 C23.2310204,19.1926531 23.7722449,19.9836735 24.2302041,20.8579592 C24.7714286,21.8987755 25.1877551,22.9812245 25.1877551,22.9812245 C25.1877551,22.9812245 28.2269388,23.6473469 30.9330612,25.2710204 C30.9330612,25.2710204 30.8497959,43.0481633 30.9330612,45.2130612 C31.0163265,47.3779592 33.7640816,63.5730612 33.1395918,65.6130612 C32.3902041,68.1526531 28.6016327,67.8195918 22.7314286,67.8195918 C16.8612245,67.8195918 10.9910204,70.7338776 8.45142857,68.277551 C8.45142857,68.277551 8.45142857,68.2359184 8.45142857,68.2359184 C8.49306122,65.2383673 8.53469388,62.2408163 8.61795918,59.2432653 C8.65959184,57.3281633 8.70122449,55.4130612 8.74285714,53.5395918 C8.82612245,50.5420408 9.32571429,47.5861224 9.20081633,44.5885714 C9.15918367,43.0065306 8.82612245,41.4244898 8.70122449,39.842449 C8.53469388,38.0938776 8.40979592,36.3453061 8.36816327,34.5967347 C8.36816327,33.8473469 8.32653061,33.0979592 8.40979592,32.3485714 C8.45142857,31.9738776 8.53469388,31.3493878 8.70122449,31.0579592 C9.4922449,29.7673469 12.24,28.2269388 13.2391837,27.1028571 C14.0302041,26.2702041 15.4873469,23.1477551 15.4873469,23.1477551 Z" fill="url(#linearGradient-8)"></path>
                                <polygon fill="url(#linearGradient-9)" fill-rule="nonzero" points="11.9902041 47.0865306 6.61959184 60.8669388 25.437551 69.4016327 31.0163265 55.5379592"></polygon>
                                <path d="M11.3240816,119.402449 C11.3240816,120.942857 11.3657143,121.484082 11.6571429,121.692245 C11.9902041,121.942041 12.3232653,121.650612 12.8644898,121.942041 C12.9061224,121.942041 13.6138776,122.441633 13.7804082,123.149388 C13.9053061,123.64898 13.7387755,123.898776 14.1134694,123.940408 C14.6963265,123.982041 15.1959184,122.941224 15.1959184,122.941224 C15.1959184,122.941224 15.237551,124.148571 15.1959184,125.813878 C15.1542857,127.479184 13.5306122,126.563265 8.28489796,126.729796 C3.03918367,126.937959 -2.91428571,123.274286 2.24816327,123.399184 C4.20489796,123.440816 5.57877551,122.982857 6.57795918,122.566531 C9.20081633,121.567347 11.3240816,119.402449 11.3240816,119.402449 Z" fill="url(#linearGradient-10)" fill-rule="nonzero"></path>
                                <g transform="translate(22.065306, 23.314286)" fill-rule="nonzero">
                                    <path d="M6.99428571,0.95755102 C6.45306122,0.915918367 4.16326531,3.16408163 3.99673469,6.03673469 C3.83020408,8.90938776 4.45469388,12.9061224 4.45469388,12.9061224 C4.45469388,12.9061224 2.33142857,13.4057143 1.74857143,12.7395918 C1.74857143,12.7395918 -0.166530612,11.4073469 0.249795918,7.11918367 C0.666122449,2.83102041 1.04081633,0.749387755 5.03755102,0.0832653061 L6.99428571,0.95755102 Z" fill="url(#linearGradient-11)"></path>
                                    <path d="M2.16489796,12.9061224 C2.16489796,12.9061224 4.7044898,30.0171429 6.70285714,31.9738776 L7.86857143,30.6 C7.86857143,30.6 3.99673469,15.7787755 3.66367347,12.9477551 L2.16489796,12.9477551 L2.16489796,12.9061224 Z" fill="#33399F"></path>
                                    <path d="M11.8653061,9.07591837 C11.8653061,9.07591837 14.5297959,11.7820408 15.0293878,12.9061224 C16.1534694,15.237551 17.0693878,23.0644898 17.0693878,23.0644898 L13.7804082,24.0220408 L11.8653061,9.07591837 Z" fill="url(#linearGradient-12)"></path>
                                    <path d="M8.49306122,30.724898 C8.49306122,30.724898 8.16,38.3436735 14.3216327,37.8440816 C20.4416327,37.3444898 18.7346939,33.1395918 18.4016327,31.2244898 C18.0685714,29.1428571 17.0693878,22.8979592 17.0693878,22.8979592 C17.0693878,22.8979592 11.7820408,23.1061224 10.0334694,25.9787755 C8.24326531,28.8514286 8.49306122,30.724898 8.49306122,30.724898 Z" fill="#33399F"></path>
                                </g>
                                <path d="M13.4057143,60.6587755 C13.4057143,60.6587755 16.444898,58.6604082 22.0653061,58.2440816 C22.0653061,58.2440816 28.3102041,52.2073469 28.684898,50.9583673 L33.597551,53.9142857 C33.597551,53.9142857 25.2293878,60.9085714 24.8546939,61.6995918 C24.48,62.4906122 21.357551,67.0285714 20.3167347,66.9869388 C19.2759184,66.9453061 14.5714286,65.1134694 14.7795918,64.5722449 C14.9877551,64.0310204 17.8187755,62.4489796 17.9436735,60.9502041 C18.0685714,59.4514286 13.9053061,63.5730612 13.4057143,60.6587755 Z" fill="#FED2F5" fill-rule="nonzero"></path>
                                <path d="M36.4702041,49.084898 C36.2620408,49.9591837 35.3044898,51.957551 34.3053061,53.5395918 C33.5142857,54.7885714 32.7232653,55.7877551 32.2653061,55.7461224 C31.2661224,55.7044898 27.1028571,52.5820408 27.1028571,52.5820408 C27.1028571,52.5820408 27.8106122,51.2914286 28.5183673,49.7510204 C29.2261224,48.1689796 29.9755102,46.3787755 29.9755102,45.5461224 C29.9338776,43.8808163 26.6032653,37.2195918 25.9787755,34.3053061 C25.437551,31.7240816 25.8955102,24.7714286 29.2677551,24.2302041 C32.64,23.7306122 34.0971429,31.8906122 34.3885714,33.6391837 C34.68,35.3461224 36.8032653,47.5028571 36.4702041,49.084898 Z" fill="url(#linearGradient-13)"></path>
                                <path d="M21.7322449,14.2383673 C20.3167347,13.8636735 19.8171429,10.2416327 19.5257143,8.90938776 C19.2342857,7.57714286 17.8187755,7.41061224 16.195102,8.20163265 C14.5714286,8.99265306 13.4889796,7.95183673 12.6979592,7.66040816 C11.9485714,7.36897959 11.6571429,9.86693878 11.6571429,9.86693878 C10.3665306,9.5755102 9.36734694,4.32979592 9.61714286,2.53959184 C9.86693878,0.707755102 12.5730612,1.66530612 13.1559184,2.08163265 C13.7804082,2.53959184 13.6555102,0.874285714 13.6555102,0.874285714 C15.6538776,-0.999183673 19.5673469,2.24816327 20.1502041,2.70612245 C20.7330612,3.16408163 20.5665306,2.12326531 21.1493878,2.12326531 C21.7322449,2.12326531 23.5640816,4.41306122 23.9387755,6.8277551 C24.5216327,10.8661224 22.2734694,17.8187755 22.1902041,17.3191837 C22.1069388,16.8195918 22.1069388,14.4465306 22.1069388,14.4465306 L21.7322449,14.2383673" fill="#361278" fill-rule="nonzero"></path>
                                <path d="M21.7322449,12.0318367 C21.7322449,12.0318367 22.6065306,10.8244898 23.6057143,11.282449 C24.604898,11.6987755 22.8979592,15.4873469 22.564898,15.5706122 C22.2318367,15.6538776 21.7738776,14.9877551 21.7738776,14.9877551 L21.7738776,12.0318367 L21.7322449,12.0318367 Z" fill="#FED2F5" fill-rule="nonzero"></path>
                                <path d="M24.2302041,20.8163265 L19.442449,28.4767347 C19.317551,28.684898 19.0261224,28.7265306 18.8595918,28.56 L17.6106122,27.3526531 C17.6522449,26.644898 17.6522449,25.9371429 18.0685714,25.562449 L18.4432653,25.0628571 L22.8146939,19.0261224 C23.2726531,19.1926531 23.8138776,19.9836735 24.2302041,20.8163265 Z" fill="url(#linearGradient-14)"></path>
                                <path d="M34.2636735,53.5395918 C33.4726531,54.7885714 32.6816327,55.7877551 32.2236735,55.7461224 C31.2244898,55.7044898 27.0612245,52.5820408 27.0612245,52.5820408 C27.0612245,52.5820408 27.7689796,51.2914286 28.4767347,49.7510204 L34.2636735,53.5395918 Z" fill="url(#linearGradient-15)"></path>
                                <path d="M38.7183673,115.65551 L33.3893878,116.987755 C33.3893878,116.987755 33.1395918,115.905306 32.8481633,114.24 L38.7183673,113.199184 C38.7183673,114.697959 38.7183673,115.65551 38.7183673,115.65551 Z" fill="url(#linearGradient-16)"></path>
                                <path d="M16.195102,116.90449 C16.0285714,117.69551 15.8620408,118.444898 15.6955102,119.11102 L10.4081633,119.11102 C10.2416327,118.153469 10.075102,117.195918 9.95020408,116.28 L16.195102,116.90449 Z" fill="url(#linearGradient-17)"></path>
                            </g>
                        </g>
                        <path d="M187.888163,211.327347 C187.430204,212.493061 186.555918,213.617143 185.431837,214.574694 C186.555918,213.617143 187.430204,212.534694 187.888163,211.327347 Z" id="Path" fill="#88A2F6" fill-rule="nonzero"></path>
                        <path d="M188.179592,210.453061 C188.096327,210.74449 188.013061,211.035918 187.888163,211.327347 C188.013061,211.035918 188.096327,210.74449 188.179592,210.453061 C188.179592,210.453061 188.179592,210.453061 188.179592,210.453061 Z" id="Path" fill="#88A2F6" fill-rule="nonzero"></path>
                        <g id="Group" transform="translate(181.102041, 153.138776)">
                            <g transform="translate(88.677551, 0.000000)">
                                <ellipse id="Oval" fill="#FFE4C6" fill-rule="nonzero" cx="17.7771429" cy="14.682449" rx="17.6938776" ry="9.90857143"></ellipse>
                                <path d="M17.7771429,24.5493878 C8.61795918,24.5493878 1.12408163,20.677551 0.166530612,15.6816327 C0.0832653061,16.0146939 0.0832653061,16.3893878 0.0832653061,16.722449 C0.0832653061,22.1763265 7.99346939,26.6310204 17.7771429,26.6310204 C27.5608163,26.6310204 35.4710204,22.2179592 35.4710204,16.722449 C35.4710204,16.3893878 35.4293878,16.0146939 35.3877551,15.6816327 C34.4302041,20.677551 26.8946939,24.5493878 17.7771429,24.5493878 Z" id="Path" fill="#EEC79A"></path>
                                <ellipse id="Oval" fill="url(#linearGradient-18)" opacity="0.189476376" cx="17.7771429" cy="39.3289796" rx="11.4489796" ry="7.49387755"></ellipse>
                                <g id="Group-2" opacity="0.85175" transform="translate(8.867755, 1.314898)">
                                    <path d="M0,5.12081633 C2.62285714,4.24653061 5.70367347,3.74693878 8.99265306,3.74693878 C11.4489796,3.74693878 13.7804082,4.03836735 15.8620408,4.53795918 L8.36816327,10.4081633 L0,5.12081633 Z" id="Path" fill="#F73965" fill-rule="nonzero"></path>
                                    <polygon id="Path" fill="url(#linearGradient-19)" points="15.9036735 0.791020408 15.8620408 4.57959184 8.36816327 10.4081633 8.36816327 6.70285714"></polygon>
                                    <polygon id="Path" fill="url(#linearGradient-20)" points="3.92574862e-14 1.4155102 3.92574862e-14 5.12081633 8.36816327 10.4081633 8.40979592 6.70285714"></polygon>
                                    <path d="M4.8316906e-14,1.37387755 C2.62285714,0.499591837 5.70367347,1.5476509e-14 8.99265306,1.5476509e-14 C11.4489796,1.5476509e-14 13.7804082,0.291428571 15.8620408,0.791020408 L8.36816327,6.66122449 L4.8316906e-14,1.37387755 Z" id="Path" fill="url(#linearGradient-21)"></path>
                                </g>
                            </g>
                            <g transform="translate(49.542857, 24.632653)">
                                <ellipse id="Oval" fill="#FFE4C6" fill-rule="nonzero" cx="17.9436735" cy="11.9902041" rx="17.6938776" ry="9.90857143"></ellipse>
                                <path d="M17.9436735,21.8987755 C8.7844898,21.8987755 1.29061224,18.0269388 0.333061224,13.0310204 C0.249795918,13.3640816 0.249795918,13.7387755 0.249795918,14.0718367 C0.249795918,19.5257143 8.16,23.9804082 17.9436735,23.9804082 C27.7273469,23.9804082 35.637551,19.5673469 35.637551,14.0718367 C35.637551,13.7387755 35.5959184,13.3640816 35.5542857,13.0310204 C34.5967347,18.0269388 27.0612245,21.8987755 17.9436735,21.8987755 Z" id="Path" fill="#EEC79A"></path>
                                <ellipse id="Oval" fill="url(#linearGradient-18)" opacity="0.189476376" cx="17.9436735" cy="36.6783673" rx="11.4489796" ry="7.49387755"></ellipse>
                                <g opacity="0.85" transform="translate(18.318367, 0.000000)" id="Path">
                                    <g>
                                        <g opacity="0.85" fill="url(#linearGradient-22)">
                                            <path d="M17.5273469,7.86857143 C17.5273469,8.57632653 17.402449,9.28408163 17.1526531,9.95020408 C16.32,12.115102 14.2383673,13.9885714 11.3657143,15.362449 L0.166530612,7.86857143 L11.1159184,0.249795918 C15.0293878,2.08163265 17.5273469,4.7877551 17.5273469,7.86857143 Z"></path>
                                        </g>
                                        <polygon fill="url(#linearGradient-23)" points="0.166530612 7.86857143 0.166530612 12.0318367 11.3240816 19.4008163 11.3657143 15.362449"></polygon>
                                    </g>
                                    <path d="M11.3657143,15.362449 C11.3657143,15.362449 18.7763265,12.115102 17.3191837,6.32816327 C17.3191837,6.32816327 20.6914286,15.1126531 11.3657143,19.4008163 L11.3657143,15.362449 Z" fill="url(#linearGradient-24)"></path>
                                </g>
                            </g>
                            <g transform="translate(0.000000, 37.955102)">
                                <path d="M35.4293878,13.6971429 C35.4293878,19.1510204 27.5191837,23.6057143 17.7355102,23.6057143 C13.322449,23.6057143 9.28408163,22.6897959 6.16163265,21.1910204 L6.16163265,19.1093878 L8.07673469,17.8187755 C10.8661224,18.8179592 14.155102,19.442449 17.7355102,19.442449 C26.2285714,19.442449 33.3477551,16.1118367 35.0546939,11.6155102 C35.1795918,11.9485714 35.2628571,12.2816327 35.3461224,12.6563265 C35.3877551,13.0310204 35.4293878,13.3640816 35.4293878,13.6971429 Z" id="Path" fill="#EEC79A"></path>
                                <path d="M35.4293878,11.6155102 C35.4293878,11.9485714 35.3877551,12.3232653 35.3461224,12.6563265 C35.2628571,12.9893878 35.1795918,13.3640816 35.0546939,13.6971429 C33.3477551,18.1518367 26.2285714,21.5240816 17.7355102,21.5240816 C13.322449,21.5240816 9.28408163,20.6081633 6.16163265,19.1093878 L8.07673469,17.8187755 L17.3191837,11.6155102 L6.41142857,4.03836735 C9.4922449,2.62285714 13.4473469,1.74857143 17.7771429,1.74857143 C27.5191837,1.74857143 35.4293878,6.16163265 35.4293878,11.6155102 Z" id="Path" fill="#FFE4C6" fill-rule="nonzero"></path>
                                <g opacity="0.848053" id="Path">
                                    <path d="M0,9.80049846 C0,10.6956312 0.124897959,11.5381091 0.374693878,12.380587 C1.16571429,15.0133303 3.20571429,17.3827993 5.99510204,19.0677551 L16.9028571,9.80049846 L13.9053061,7.1677551 L5.99510204,13.9075781 C3.20571429,12.2226224 1.16571429,9.9058082 0.374693878,7.22040997 C0.124897959,8.06288785 0,8.90536572 0,9.80049846 Z" fill="url(#linearGradient-25)"></path>
                                    <path d="M0,7.66040816 C0,8.36816327 0.124897959,9.03428571 0.374693878,9.70040816 C1.16571429,11.7820408 3.20571429,13.6555102 5.99510204,14.9877551 L16.9028571,7.66040816 L6.24489796,0.249795918 C2.41469388,1.99836735 0,4.66285714 0,7.66040816 Z" fill="url(#linearGradient-26)"></path>
                                    <polygon fill="url(#linearGradient-27)" points="16.9444898 7.66040816 16.9444898 11.7404082 5.99510204 18.9428571 5.99510204 14.9877551"></polygon>
                                </g>
                                <ellipse id="Oval" fill="url(#linearGradient-18)" opacity="0.189476376" cx="20.4832653" cy="36.3453061" rx="11.4489796" ry="7.49387755"></ellipse>
                            </g>
                        </g>
                        <g id="Group" transform="translate(241.053061, 41.632653)">
                            <g transform="translate(0.000000, 7.493878)" id="Path">
                                <polygon fill="#FFE4C6" fill-rule="nonzero" points="10.8244898 36.844898 0 30.6 0 6.03673469 10.8244898 12.2816327"></polygon>
                                <polygon fill="#EEC79A" points="10.8244898 36.844898 21.6489796 30.6 21.6489796 6.03673469 10.8244898 12.2816327"></polygon>
                                <polygon fill="#E8E8E8" fill-rule="nonzero" points="0 6.03673469 10.8244898 12.2816327 21.6489796 6.03673469 11.0742857 0.0416326531"></polygon>
                            </g>
                            <g id="Path">
                                <polygon fill="url(#linearGradient-28)" points="10.8244898 20.1502041 0 13.8636735 0 5.99510204 10.8244898 12.24"></polygon>
                                <polygon fill="url(#linearGradient-28)" points="10.8244898 20.1502041 21.6489796 13.8636735 21.6489796 5.99510204 10.8244898 12.24"></polygon>
                                <polygon fill="url(#linearGradient-29)" points="0 5.99510204 10.8244898 12.24 21.6489796 5.99510204 11.0742857 0"></polygon>
                            </g>
                        </g>
                        <g id="Group" transform="translate(262.702041, 65.779592)">
                            <g transform="translate(0.000000, 7.493878)" id="Path">
                                <polygon fill="#FFE4C6" fill-rule="nonzero" points="10.8244898 24.355102 0 18.1102041 0 6.03673469 10.8244898 12.2816327"></polygon>
                                <polygon fill="#EEC79A" points="10.8244898 24.355102 21.6489796 18.1102041 21.6489796 6.03673469 10.8244898 12.2816327"></polygon>
                                <polygon fill="#E8E8E8" fill-rule="nonzero" points="0 6.03673469 10.8244898 12.2816327 21.6489796 6.03673469 11.0742857 0.0416326531"></polygon>
                            </g>
                            <g id="Path">
                                <polygon fill="url(#linearGradient-28)" points="10.8244898 20.1502041 0 13.8636735 0 5.99510204 10.8244898 12.24"></polygon>
                                <polygon fill="url(#linearGradient-28)" points="10.8244898 20.1502041 21.6489796 13.8636735 21.6489796 5.99510204 10.8244898 12.24"></polygon>
                                <polygon fill="url(#linearGradient-29)" points="0 5.99510204 10.8244898 12.24 21.6489796 5.99510204 11.0742857 0"></polygon>
                            </g>
                        </g>
                        <polygon id="Path" fill="url(#linearGradient-30)" opacity="0.189476376" points="229.187755 84.3477551 221.277551 90.1763265 290.387755 129.727347 298.297959 124.315102"></polygon>
                        <g id="Group" transform="translate(284.351020, 64.946939)">
                            <g transform="translate(0.000000, 7.493878)" id="Path">
                                <polygon fill="#FFE4C6" fill-rule="nonzero" points="10.8244898 36.844898 0 30.6 0 6.03673469 10.8244898 12.2816327"></polygon>
                                <polygon fill="#EEC79A" points="10.8244898 36.844898 21.6489796 30.6 21.6489796 6.03673469 10.8244898 12.2816327"></polygon>
                                <polygon fill="#E8E8E8" fill-rule="nonzero" points="0 6.03673469 10.8244898 12.2816327 21.6489796 6.03673469 11.0742857 0.0416326531"></polygon>
                            </g>
                            <g id="Path">
                                <polygon fill="url(#linearGradient-28)" points="10.8244898 20.1502041 0 13.8636735 0 5.99510204 10.8244898 12.24"></polygon>
                                <polygon fill="url(#linearGradient-28)" points="10.8244898 20.1502041 21.6489796 13.8636735 21.6489796 5.99510204 10.8244898 12.24"></polygon>
                                <polygon fill="url(#linearGradient-29)" points="0 5.99510204 10.8244898 12.24 21.6489796 5.99510204 11.0742857 0"></polygon>
                            </g>
                        </g>
                    </g>
                </g>
            </g>
        </g>
    </g>
</svg>