<?xml version="1.0" encoding="UTF-8" standalone="no"?>
<svg
   xmlns:dc="http://purl.org/dc/elements/1.1/"
   xmlns:cc="http://creativecommons.org/ns#"
   xmlns:rdf="http://www.w3.org/1999/02/22-rdf-syntax-ns#"
   xmlns:svg="http://www.w3.org/2000/svg"
   xmlns="http://www.w3.org/2000/svg"
   id="svg8"
   version="1.1"
   viewBox="0 0 61.087811 71.353218"
   height="71px"
   width="61px">
  <defs
     id="defs2" />
  <metadata
     id="metadata5">
    <rdf:RDF>
      <cc:Work
         rdf:about="">
        <dc:format>image/svg+xml</dc:format>
        <dc:type
           rdf:resource="http://purl.org/dc/dcmitype/StillImage" />
        <dc:title></dc:title>
      </cc:Work>
    </rdf:RDF>
  </metadata>
  <g
     transform="translate(-0.45014228,-1.2757703)"
     id="layer1">
    <path
       id="path644"
       d="M 26.02143,70.97534 C 25.38895,68.69758 23.74685,65.27449 22.73238,64.11908 21.35696,62.55256 20.186,62.22467 16.33968,62.32901 9.64377,62.51064 8.76683,62.34951 7.6104,60.7255 6.99347,59.8591 6.93307,59.1895 7.21635,56.35711 L 7.40159,54.50503 6.28947,53.24549 C 5.25016,52.06843 5.1963,51.93158 5.46684,51.15549 5.92823,49.83195 5.82346,49.20641 5.07313,48.804842 4.492739,48.494231 4.415949,48.318252 4.562899,47.635651 5.26189,44.388732 5.07592,43.83068 2.873209,42.565342 c -3.37454,-1.938509 -3.31962,-2.41047 0.76576,-6.58042 C 7.66072,31.879933 7.75548,31.66889 7.21411,28.022943 6.2938,21.825021 6.87032,17.919601 9.49226,12.590481 c 1.13158,-2.299949 1.71203,-3.1156985 3.50643,-4.9277685 1.79565,-1.81334 2.56811,-2.37397 4.6828,-3.398601 6.96158,-3.37310902 16.00201,-3.91422902 25.11652,-1.503369 7.09379,1.87637 12.46163,6.20233 15.72231,12.6706585 2.04731,4.06132 3.20749,9.76021 2.9921,14.69749 -0.20154,4.620141 -1.03724,6.713112 -5.09876,12.769461 -3.55166,5.296091 -5.77069,10.477098 -6.12851,14.308948 -0.26929,2.88378 0.92502,8.03987 3.0635,13.22573 0.42869,1.0396 0.71064,1.95898 0.62656,2.04307 -0.0841,0.0841 -6.30478,0.15289 -13.82375,0.15289 H 26.48061 Z"
       style="fill:#d11126;stroke-width:1" />
    <path
       id="path642"
       d="m 44.36754,40.62402 c 0.3162,-0.169219 0.536,-0.70417 0.65361,-1.59072 0.24779,-1.867929 0.36013,-2.067279 1.27867,-2.269019 0.73692,-0.161859 0.92471,-0.0502 2.03677,1.21113 l 1.225,1.389441 0.85154,-0.440351 c 0.99521,-0.514638 1.0361,-0.86654 0.31972,-2.75136 l -0.53156,-1.398561 0.65259,-0.652597 0.65259,-0.652592 1.34411,0.529801 c 1.84245,0.726229 2.29211,0.67899 2.79508,-0.29364 l 0.42582,-0.823452 -1.3867,-1.281528 c -1.31652,-1.216681 -1.37422,-1.32502 -1.14025,-2.14082 0.23031,-0.80305 0.3559,-0.879081 1.9192,-1.161801 1.71714,-0.310539 2.13984,-0.62712 2.1469,-1.60792 0.006,-0.79213 -0.43053,-1.06622 -2.22184,-1.39599 -0.86043,-0.15841 -1.60334,-0.32692 -1.65089,-0.37447 -0.0476,-0.0476 -0.15897,-0.449 -0.24759,-0.89209 -0.14333,-0.71668 -0.0268,-0.91794 1.05558,-1.82268 0.88726,-0.74166 1.2167,-1.20802 1.2167,-1.72236 0,-1.371 -0.73307,-1.52782 -3.4003,-0.72739 -1.09813,0.32955 -1.17511,0.31618 -1.66522,-0.28909 -0.29447,-0.36365 -0.44085,-0.81368 -0.34283,-1.05402 1.17767,-2.88782 1.14564,-3.34975 -0.26718,-3.85297 -0.5916,-0.21072 -0.79195,-0.16827 -1.08274,0.2294 -1.13813,1.55648 -1.96441,2.2311 -2.55526,2.08625 -0.98758,-0.24212 -1.19302,-0.53701 -1.38563,-1.98895 -0.2259,-1.70296 -0.50247,-2.05252 -1.62392,-2.05252 -0.79291,0 -0.90882,0.0994 -1.15675,0.99219 -0.15155,0.5457 -0.27621,1.23732 -0.27702,1.53693 -0.002,0.73235 -0.52294,1.33857 -1.31279,1.52764 -0.53883,0.12899 -0.8599,-0.079 -1.87927,-1.21707 -1.1657,-1.30149 -1.2661,-1.35592 -1.93726,-1.05011 -0.9819,0.44738 -1.12088,1.01077 -0.60656,2.45886 0.56974,1.60414 0.55764,1.91556 -0.0975,2.50846 -0.52261,0.47297 -0.58588,0.47339 -1.94009,0.0131 -1.72374,-0.58592 -2.28069,-0.495 -2.80223,0.45744 -0.40322,0.73635 -0.3964,0.74983 1.00395,1.98561 1.24454,1.09828 1.38852,1.32951 1.22746,1.97123 -0.22429,0.89367 -0.28189,0.92989 -1.99536,1.25485 -1.62999,0.30912 -2.09723,0.63551 -2.09723,1.46502 0,0.86671 0.60907,1.366321 1.91299,1.56918 1.82519,0.283969 1.98447,0.375951 2.15859,1.246571 0.15008,0.750408 0.0342,0.947139 -1.21934,2.06988 -1.31402,1.17692 -1.36861,1.27702 -1.06267,1.9485 0.4629,1.01595 0.98837,1.110758 2.7143,0.48976 l 1.52768,-0.549672 0.59902,0.63763 0.59902,0.637633 -0.48911,1.61544 c -0.53567,1.769157 -0.41184,2.277078 0.65101,2.670259 0.53456,0.197739 0.78699,0.0466 1.84515,-1.104331 1.10746,-1.204619 1.30699,-1.317191 2.06564,-1.16546 0.87362,0.174731 0.87729,0.18202 1.28651,2.558679 0.23089,1.340843 1.1174,1.847361 2.20991,1.262671 z"
       style="fill:#ffffff;stroke-width:1" />
    <path
       id="path640"
       d="m 41.3428,31.467072 c -3.14467,-1.635512 -3.9171,-5.375271 -1.64478,-7.963301 2.1485,-2.44701 5.47321,-2.50575 7.69882,-0.13602 1.7762,1.8912 1.6384,5.54911 -0.27226,7.227349 -1.46867,1.290021 -4.18912,1.700303 -5.78178,0.871972 z"
       style="fill:#d11126;stroke-width:1" />
    <path
       id="path638"
       d="m 21.13724,27.782111 c 0.71558,-1.21281 1.42616,-1.20882 2.00798,0.0113 0.327,0.68572 0.59218,0.91654 0.98791,0.859901 0.42876,-0.0614 0.56836,-0.323821 0.67322,-1.265681 0.15023,-1.34936 0.5736,-1.58418 1.76818,-0.98069 0.40995,0.2071 0.89419,0.32343 1.07608,0.25851 0.46367,-0.16548 0.41207,-1.13302 -0.09,-1.68779 -0.26082,-0.28821 -0.3546,-0.67321 -0.24675,-1.01302 0.14065,-0.44316 0.39314,-0.54813 1.31845,-0.54813 0.80212,0 1.19279,-0.12587 1.30595,-0.42075 0.21213,-0.5528 0.0236,-0.82217 -0.91537,-1.30772 -1.07948,-0.55822 -1.06903,-1.55753 0.0203,-1.93726 0.43848,-0.15286 0.87455,-0.47938 0.96903,-0.72561 0.23587,-0.61468 -0.59635,-1.174 -1.48297,-0.99667 -0.47303,0.0946 -0.83081,-0.004 -1.07252,-0.29507 -0.3095,-0.37292 -0.29762,-0.54722 0.081,-1.18811 0.65739,-1.11287 0.58292,-1.86005 -0.18539,-1.86005 -0.34598,0 -0.77728,0.17859 -0.95844,0.396869 -0.39893,0.480681 -1.21623,0.518961 -1.49373,0.07 -0.11113,-0.17982 -0.16931,-0.70692 -0.1293,-1.17136 0.13903,-1.61363 -1.44244,-1.68475 -1.94934,-0.0877 -0.25722,0.81042 -1.34928,0.68734 -1.77457,-0.2 -0.24212,-0.50517 -0.54985,-0.72761 -1.00662,-0.72761 -0.58351,0 -0.67286,0.13436 -0.79019,1.18826 -0.14913,1.33953 -0.74692,1.68913 -1.5875,0.9284 -1.07496,-0.97282 -2.17142,0.37145 -1.18869,1.45735 0.74807,0.82661 0.40954,1.44203 -0.8435,1.53343 -0.60588,0.0442 -1.25584,0.2662 -1.44435,0.49335 -0.28858,0.34771 -0.24538,0.49184 0.27329,0.91183 0.33882,0.27437 0.78145,0.49884 0.9836,0.49884 0.23202,0 0.36757,0.29272 0.36757,0.79375 0,0.52917 -0.13229,0.79375 -0.39688,0.79375 -0.58964,0 -1.46636,0.98599 -1.28861,1.44921 0.10621,0.27678 0.521,0.40288 1.32522,0.40288 1.39171,0 1.71509,0.48497 1.06135,1.59167 -0.90073,1.52481 -0.18439,2.34787 1.17119,1.34565 1.05491,-0.77993 1.87282,-0.38844 1.78899,0.85628 -0.1153,1.712071 0.8061,2.028521 1.66546,0.57201 z"
       style="fill:#d11126;stroke-width:1" />
    <path
       id="path636"
       d="m 20.36579,23.268131 c -1.85757,-1.30109 -1.7459,-4.2656 0.19857,-5.27112 2.18291,-1.12883 4.50657,0.37639 4.50657,2.91925 0,0.7454 -0.20517,1.17082 -0.89958,1.86523 -0.74905,0.74905 -1.09339,0.89958 -2.05779,0.89958 -0.63702,0 -1.42352,-0.18582 -1.74777,-0.41294 z"
       style="fill:#d11126;stroke-width:1" />
  </g>
</svg>
